<svg width="13" height="23" viewBox="0 0 13 23" fill="none" xmlns="http://www.w3.org/2000/svg">
<g clip-path="url(#clip0_112_419)">
<path d="M2.65 0.450095L12.55 10.3501C12.7167 10.5168 12.8333 10.6834 12.9 10.8501C12.9667 11.0168 13 11.2001 13 11.4001C13 11.6001 12.9667 11.7834 12.9 11.9501C12.8333 12.1168 12.7167 12.2834 12.55 12.4501L2.6 22.4001C2.3 22.7001 1.94167 22.8501 1.525 22.8501C1.10833 22.8501 0.750001 22.7001 0.450001 22.4001C0.150001 22.1001 0.00833305 21.7334 0.0249998 21.3001C0.0416665 20.8668 0.2 20.5001 0.5 20.2001L9.3 11.4001L0.450003 2.5501C0.150003 2.2501 1.83151e-06 1.9001 1.86648e-06 1.5001C1.90145e-06 1.1001 0.150003 0.750095 0.450003 0.450095C0.750003 0.150095 1.11667 9.81433e-05 1.55 9.81811e-05C1.98334 9.8219e-05 2.35 0.150095 2.65 0.450095V0.450095Z" fill="white"/>
</g>
<defs>
<clipPath id="clip0_112_419">
<rect width="13" height="23" fill="white"/>
</clipPath>
</defs>
</svg>
