<?xml version="1.0" encoding="UTF-8"?><svg id="Layer_3" xmlns="http://www.w3.org/2000/svg" xmlns:xlink="http://www.w3.org/1999/xlink" viewBox="0 0 209.05 274.88"><defs><style>.cls-1{fill:#8089b4;}.cls-2{fill:#a45920;}.cls-3{stroke-width:2.72px;}.cls-3,.cls-4{stroke:#111;stroke-linecap:round;stroke-linejoin:round;}.cls-3,.cls-4,.cls-5{fill:none;}.cls-6{fill:#cd9d78;}.cls-7{fill:#111;}.cls-8{fill:#292a74;}.cls-4{stroke-width:5.45px;}.cls-9{clip-path:url(#clippath);}.cls-10{fill:#0b0e2d;}</style><clipPath id="clippath"><ellipse class="cls-5" cx="104.24" cy="227.86" rx="103.06" ry="45.58"/></clipPath></defs><path class="cls-6" d="M43.32,1.86h120.48c12.98,0,23.51,10.53,23.51,23.51V95.19H19.81V25.38C19.81,12.4,30.35,1.86,43.32,1.86Z"/><ellipse class="cls-2" cx="17.98" cy="103.17" rx="13.9" ry="21.2" transform="translate(-21.26 6.07) rotate(-12.12)"/><path class="cls-3" d="M16.01,89.71c-6.26-2.49-8.88,14.36-2.95,21.32"/><ellipse class="cls-8" cx="104.24" cy="227.86" rx="103.06" ry="45.58"/><g class="cls-9"><rect class="cls-1" x="-3.78" y="187.57" width="220.1" height="9.36"/><rect class="cls-1" x="-3.78" y="207.23" width="220.1" height="9.36"/><rect class="cls-1" x="-3.78" y="226.89" width="220.1" height="9.36"/><rect class="cls-1" x="-3.78" y="246.56" width="220.1" height="9.36"/><rect class="cls-1" x="-3.78" y="266.22" width="220.1" height="9.36"/></g><path class="cls-10" d="M117.61,173.35v-14.02h-26.73v5.98c5.88,8.44,17.01,8.9,26.73,8.04Z"/><path class="cls-2" d="M90.88,165.32v22.98c0,7.38,5.98,13.36,13.36,13.36h0c7.38,0,13.36-5.98,13.36-13.36v-14.94c-9.72,.86-20.84,.4-26.73-8.04Z"/><ellipse class="cls-2" cx="185.99" cy="103.17" rx="21.2" ry="13.9" transform="translate(46.08 263.37) rotate(-77.88)"/><ellipse class="cls-6" cx="103.56" cy="83.9" rx="83.75" ry="51.7"/><path class="cls-2" d="M181.43,79.1c-12.28-12.35-59.55-42.02-94.91-42.02s-48.54,29.67-60.82,42.02c-.67,4-1.03,8.1-1.03,12.29s.36,8.29,1.03,12.29c6.08,36.26,38.62,63.95,77.87,63.95s71.78-27.69,77.87-63.95c.67-4,1.03-8.1,1.03-12.29s-.36-8.29-1.03-12.29Z"/><circle class="cls-7" cx="77.09" cy="88.27" r="6.79"/><circle class="cls-7" cx="137.69" cy="87.25" r="6.79"/><ellipse class="cls-7" cx="138.96" cy="72.35" rx="3.06" ry="9.38" transform="translate(44.22 197.11) rotate(-80.29)"/><ellipse class="cls-7" cx="75.62" cy="72.55" rx="9.38" ry="3.06" transform="translate(-11.15 13.79) rotate(-9.71)"/><path class="cls-4" d="M64.99,120.48s16.85,29.36,49.79,16.85"/><path class="cls-4" d="M108.06,64.92v34.37s14.72,3.26,11.27,11.69c-2.05,5.01-11.9,1.66-11.9,1.66"/><path class="cls-3" d="M188.72,89.71c6.26-2.49,8.88,14.36,2.95,21.32"/></svg>