<?xml version="1.0" encoding="UTF-8"?><svg id="Layer_1" xmlns="http://www.w3.org/2000/svg" viewBox="0 0 62.47 61.88"><defs><style>.cls-1{fill:#a8b0c8;stroke:#292a74;stroke-linecap:round;stroke-linejoin:round;stroke-width:4.67px;}</style></defs><path class="cls-1" d="M58.34,31.1c0-14.97-12.14-27.11-27.11-27.11S4.13,16.13,4.13,31.1c0,13.5,9.86,24.69,22.77,26.76v-18.89h-6.88v-7.87h6.88s-.03-2.75,.03-7.26c.06-4.87,3.44-7.75,6.76-8.79,3.03-.96,9.54,.12,9.54,.12v6.67h-4.4s-1.5,.09-2.51,1.23-.9,2.66-.9,2.66l.03,5.38h7.48l-1.17,7.87h-6.34v18.91c12.98-2.01,22.92-13.24,22.92-26.79Z"/></svg>