<svg width="294" height="405" viewBox="0 0 294 405" fill="none" xmlns="http://www.w3.org/2000/svg">
<path d="M139.537 66.8415C135.897 67.5371 132.204 67.109 128.671 65.7177C134.719 71.925 142.213 75.1356 149.545 73.6908C163.676 70.9083 171.865 52.2866 167.904 32.0061C164.96 17.0232 156.182 5.35787 146.066 1.4516C151.633 7.17723 156.022 15.4714 157.895 25.1568C161.856 45.4373 153.667 64.0589 139.537 66.8415Z" fill="#212455"/>
<path d="M293.845 10.4949C278.323 24.8357 263.872 37.1967 250.277 47.8988C209.331 104.299 195.522 139.134 189.367 224.055L189.313 224.912L189.153 226.891L189.046 228.015C188.564 235.293 188.083 242.891 187.708 250.918C187.708 251.56 187.654 252.255 187.601 252.898C185.781 290.194 184.764 336.16 183.479 394.968C183.479 395.182 183.426 395.396 183.319 395.61C183.479 397.697 183.694 399.784 183.854 401.924C184.175 405.51 193.381 405.028 193.435 401.764C194.719 342.956 195.736 296.99 197.556 259.693C197.556 258.998 197.61 258.356 197.663 257.714C198.091 249.687 198.52 242.035 199.001 234.811L199.108 233.687L199.269 231.707V230.851C206.869 125.971 226.191 97.503 293.792 10.4414L293.845 10.4949Z" fill="#212455"/>
<path d="M135.147 0.3279C121.017 3.11045 112.828 21.7321 116.789 42.0126C118.716 51.7515 123.051 59.9921 128.618 65.7178C132.15 67.109 135.843 67.5371 139.483 66.8415C153.613 64.0589 161.802 45.4373 157.842 25.1568C155.915 15.4179 151.579 7.17725 146.013 1.45162C142.48 0.060347 138.787 -0.367737 135.147 0.3279V0.3279Z" fill="url(#paint0_linear_7_505)"/>
<path d="M250.277 47.8987C149.492 127.255 96.0751 113.61 10.116 94.7205C6.79751 93.9713 3.42552 93.2757 0 92.5265C28.8493 105.101 52.9885 117.195 73.3275 130.519C114.487 157.435 139.965 189.22 156.771 239.895L157.306 241.66L157.895 243.48L158.109 244.229C160.25 251.078 162.284 258.249 164.157 265.794C164.318 266.436 164.478 267.024 164.639 267.666C172.989 301.86 178.716 343.598 183.265 395.717C183.372 395.503 183.426 395.289 183.426 395.075C184.711 336.267 185.727 290.301 187.547 253.005C187.547 252.309 187.601 251.667 187.654 251.025C188.082 242.998 188.511 235.346 188.992 228.122L189.099 226.998L189.26 225.019V224.162C195.415 139.241 209.278 104.406 250.17 48.0058L250.277 47.8987Z" fill="url(#paint1_linear_7_505)"/>
<path d="M199.323 231.761L199.162 233.741C227.637 228.55 248.939 228.015 250.17 233.206C251.508 238.771 229.028 249.045 197.717 257.821C192.686 259.212 187.44 260.603 182.034 261.887C175.879 263.386 169.938 264.616 164.211 265.74C133.328 271.787 109.617 272.643 108.279 267.238C106.994 261.834 128.082 252.041 157.895 243.426L157.306 241.607C134.291 248.082 115.451 255.252 105.335 261.245C99.7147 264.563 96.7709 267.56 97.3061 269.86C98.8583 276.282 127.601 275.105 164.639 267.613C170.366 266.436 176.361 265.152 182.409 263.707C187.601 262.476 192.686 261.138 197.556 259.801C235.237 249.527 262.641 237.166 261.035 230.584C259.59 224.484 233.524 225.286 199.215 231.761H199.323Z" fill="#231F20"/>
<defs>
<linearGradient id="paint0_linear_7_505" x1="115.825" y1="33.6114" x2="158.912" y2="33.6114" gradientUnits="userSpaceOnUse">
<stop stop-color="#212455"/>
<stop offset="0.5" stop-color="#292A74"/>
<stop offset="1" stop-color="#353F87"/>
</linearGradient>
<linearGradient id="paint1_linear_7_505" x1="0" y1="221.808" x2="250.277" y2="221.808" gradientUnits="userSpaceOnUse">
<stop stop-color="#212455"/>
<stop offset="0.25" stop-color="#292A74"/>
<stop offset="1" stop-color="#353F87"/>
</linearGradient>
</defs>
</svg>
