<svg width="131" height="180" viewBox="0 0 131 180" fill="none" xmlns="http://www.w3.org/2000/svg">
<path d="M61.9047 30.0722C60.29 30.3808 58.6516 30.1909 57.0843 29.5737C59.7676 32.3275 63.092 33.7518 66.3451 33.1109C72.614 31.8764 76.247 23.615 74.4898 14.6177C73.1838 7.97054 69.2896 2.79528 64.8017 1.06229C67.2712 3.60243 69.2183 7.28209 70.0494 11.579C71.8066 20.5763 68.1736 28.8377 61.9047 30.0722Z" fill="white"/>
<path d="M130.363 5.07431C123.477 11.4365 117.066 16.9204 111.034 21.6684C92.8689 46.69 86.7425 62.1445 84.0118 99.8194L83.988 100.199L83.9168 101.078L83.8693 101.576C83.6556 104.805 83.4419 108.176 83.2757 111.737C83.2757 112.022 83.2519 112.33 83.2282 112.615C82.4208 129.162 81.9697 149.554 81.3998 175.644C81.3998 175.739 81.376 175.834 81.3285 175.929C81.3998 176.855 81.4948 177.781 81.566 178.73C81.7085 180.321 85.7927 180.107 85.8165 178.659C86.3863 152.569 86.8375 132.177 87.6449 115.63C87.6449 115.321 87.6686 115.037 87.6923 114.752C87.8823 111.191 88.0723 107.796 88.286 104.591L88.3335 104.093L88.4047 103.214V102.834C91.7766 56.3046 100.349 43.6751 130.339 5.05057L130.363 5.07431Z" fill="white"/>
<path d="M59.9575 0.56376C53.6887 1.79822 50.0557 10.0596 51.8128 19.057C52.6677 23.3776 54.591 27.0335 57.0606 29.5737C58.6278 30.1909 60.2662 30.3808 61.8809 30.0722C68.1498 28.8377 71.7828 20.5763 70.0257 11.579C69.1708 7.25835 67.2474 3.60244 64.7779 1.06229C63.2107 0.445062 61.5722 0.255144 59.9575 0.56376V0.56376Z" fill="white"/>
<path d="M111.034 21.6684C66.3214 56.8743 42.6233 50.8207 4.48791 42.4406C3.01569 42.1082 1.51972 41.7996 0 41.4673C12.7989 47.0461 23.5081 52.4113 32.5314 58.3224C50.7918 70.2635 62.0946 84.3649 69.5507 106.846L69.7882 107.63L70.0494 108.437L70.1444 108.769C71.0942 111.808 71.9966 114.989 72.8276 118.336C72.8989 118.621 72.9701 118.882 73.0413 119.167C76.7457 134.337 79.2865 152.854 81.3048 175.976C81.3523 175.881 81.3761 175.786 81.3761 175.692C81.946 149.602 82.3971 129.209 83.2044 112.663C83.2044 112.354 83.2282 112.069 83.2519 111.784C83.4419 108.223 83.6319 104.829 83.8456 101.624L83.8931 101.125L83.9643 100.247V99.8669C86.6951 62.192 92.8452 46.7375 110.987 21.7158L111.034 21.6684Z" fill="white"/>
<path d="M88.4285 103.238L88.3573 104.116C100.99 101.814 110.441 101.576 110.987 103.879C111.58 106.348 101.607 110.906 87.7161 114.799C85.484 115.416 83.157 116.034 80.7587 116.603C78.0279 117.268 75.3922 117.814 72.8514 118.313C59.1502 120.995 48.6309 121.375 48.0373 118.977C47.4674 116.58 56.8231 112.235 70.0494 108.413L69.7882 107.606C59.5776 110.479 51.2192 113.66 46.7313 116.319C44.238 117.79 42.932 119.12 43.1694 120.141C43.858 122.989 56.6094 122.467 73.0413 119.144C75.5821 118.621 78.2416 118.052 80.9249 117.411C83.2282 116.865 85.484 116.271 87.6449 115.678C104.362 111.12 116.52 105.636 115.807 102.716C115.166 100.009 103.602 100.365 88.381 103.238H88.4285Z" fill="white"/>
</svg>
