<?xml version="1.0" encoding="UTF-8"?><svg id="Layer_1" xmlns="http://www.w3.org/2000/svg" viewBox="0 0 62.47 61.88"><defs><style>.cls-1{fill:#a8b0c8;}.cls-2{fill:#292a74;}</style></defs><path class="cls-1" d="M44.44,55.49c-8.83,0-20.77-6.78-27.21-13.33-7.26-7.38-12.98-21.25-9.6-29.33,1.23-2.94,4.17-6.43,11.19-6.43,1.03,0,2.13,.08,3.28,.23,.97,.13,1.76,.85,1.97,1.8l3.09,13.78c.22,.97-.2,1.97-1.05,2.5l-3.62,2.24c.62,1.49,2.04,4.05,5.11,6.92,3.25,3.03,6.16,4.68,7.85,5.49l2.12-3.12c.44-.65,1.17-1.02,1.93-1.02,.14,0,.27,.01,.41,.04l13.78,2.44c1.01,.18,1.78,.99,1.91,2,.7,5.5-.16,9.67-2.56,12.41-1.97,2.24-4.94,3.42-8.6,3.42Z"/><path class="cls-2" d="M18.82,8.72c.92,0,1.91,.07,2.98,.21l3.09,13.78-5.16,3.19s.66,4.41,6.28,9.65c5.62,5.25,10.31,6.65,10.31,6.65l3.19-4.69,13.78,2.44c1.24,9.68-2.88,13.2-8.85,13.2-8.02,0-19.37-6.35-25.55-12.63-9.14-9.29-16.78-31.8-.07-31.8m0-4.67c-8.74,0-12.11,4.93-13.34,7.87-4.14,9.88,3.19,24.86,10.08,31.87,6.69,6.8,19.08,14.03,28.88,14.03,5.49,0,8.66-2.29,10.35-4.21,2.87-3.26,3.92-8.05,3.13-14.24-.26-2.02-1.81-3.65-3.82-4l-13.78-2.44c-.27-.05-.54-.07-.81-.07-1.53,0-2.98,.75-3.86,2.04l-.95,1.4c-1.49-.87-3.41-2.2-5.51-4.15-1.78-1.66-2.92-3.16-3.65-4.35l1.79-1.11c1.69-1.05,2.53-3.05,2.1-4.99l-3.09-13.78c-.43-1.91-2-3.35-3.94-3.6-1.25-.17-2.46-.25-3.59-.25h0Z"/></svg>