<?xml version="1.0" encoding="UTF-8"?><svg id="Layer_3" xmlns="http://www.w3.org/2000/svg" xmlns:xlink="http://www.w3.org/1999/xlink" viewBox="0 0 209.05 274.88"><defs><style>.cls-1{fill:#b1b3c0;}.cls-2{fill:#8089b4;}.cls-3{fill:#a45920;}.cls-4{fill:#111;}.cls-5{stroke:#111;stroke-linecap:round;stroke-linejoin:round;stroke-width:4.75px;}.cls-5,.cls-6{fill:none;}.cls-7{clip-path:url(#clippath);}.cls-8{fill:#0b0e2d;}</style><clipPath id="clippath"><ellipse class="cls-6" cx="-111.76" cy="227.86" rx="103.06" ry="45.58"/></clipPath></defs><g class="cls-7"><rect class="cls-2" x="-219.78" y="187.57" width="220.1" height="9.36"/><rect class="cls-2" x="-219.78" y="207.23" width="220.1" height="9.36"/><rect class="cls-2" x="-219.78" y="226.89" width="220.1" height="9.36"/><rect class="cls-2" x="-219.78" y="246.56" width="220.1" height="9.36"/><rect class="cls-2" x="-219.78" y="266.22" width="220.1" height="9.36"/></g><g><ellipse class="cls-3" cx="104.53" cy="226.77" rx="100.36" ry="44.39"/><path class="cls-8" d="M16.88,205.7c-5.42-8.96,5.6-20.75,9.73-41.99,3.98-20.47-6.62-22.04-7.94-43.15-2.12-33.73,22.62-57.12,24.85-58.89,46.49-36.93,119.66-14.83,132.5,12.98,7.77,16.82,5.1,26.71,14.71,56.29,5.02,15.46-4.31,23.62-.45,40.44,4.39,19.07,9.92,34.05-2.78,38.4-10.01,3.43-14.71-9.6-34.77-12.48-25.71-3.69-21.7,15.01-44.13,8.85-14.11-3.87-21.3-11.82-31.65-11.27-15.32,.81-16.01,12.53-35.66,16.5-9.31,1.88-20.62,.58-24.41-5.69Z"/><path class="cls-1" d="M83.75,160v48.08c0,10.32,8.37,18.69,18.69,18.69h0c10.32,0,18.69-8.37,18.69-18.69v-37.33c-13.06,.76-26.43-4.43-37.37-10.75Z"/><path class="cls-8" d="M121.13,173.4v-15.35h-37.37v4.6c10.94,6.32,24.32,11.5,37.37,10.75Z"/><rect class="cls-1" x="27.94" y="14.52" width="153.34" height="153.34" rx="76.67" ry="76.67"/><ellipse class="cls-1" cx="181.57" cy="90.72" rx="14.71" ry="9.86" transform="translate(62.1 254.81) rotate(-80.49)"/><ellipse class="cls-1" cx="26.61" cy="90.72" rx="9.86" ry="14.71" transform="translate(-14.62 5.64) rotate(-9.51)"/><circle class="cls-4" cx="74.84" cy="89.75" r="8.19"/><circle class="cls-4" cx="130.55" cy="89.75" r="8.19"/><ellipse class="cls-4" cx="138.74" cy="72.23" rx="2.14" ry="10.15" transform="translate(26.41 181.08) rotate(-71.6)"/><path class="cls-5" d="M92.82,134.56s24.1,10.43,37.73-9.91"/><path class="cls-5" d="M105.26,92.88v13.21s-7.02-.84-7.86,3.18c-.84,4.01,6.85,6.69,6.85,6.69"/><path class="cls-8" d="M25.36,70.77c.09,9.58,.94,16.27,4.9,15.91,96.62-8.69,85.87-62.85,99.74-45.67,23.51,29.13,55.17,45.97,55.16,41.12-.03-12.04-10.3-49.02-40.45-66.53C111.75-3.53,62.86,.48,40.73,27.31c-7,8.48-15.55,24.39-15.38,43.46Z"/></g></svg>