<svg width="98" height="19" viewBox="0 0 98 19" fill="none" xmlns="http://www.w3.org/2000/svg">
<g clip-path="url(#clip0_50_457)">
<path d="M9.97178 0.193848L12.059 7.2302L19.2913 7.07631L13.3531 11.2737L15.7274 18.2198L9.97178 13.7784L4.21098 18.2198L6.58522 11.2737L0.652222 7.07631L7.87931 7.2302L9.97178 0.193848Z" fill="#292A74"/>
<path d="M29.6109 0.193848L31.7034 7.2302L38.9305 7.07631L32.9923 11.2737L35.3717 18.2198L29.6109 13.7784L23.8501 18.2198L26.2244 11.2737L20.2914 7.07631L27.5185 7.2302L29.6109 0.193848Z" fill="#292A74"/>
<path d="M49.2501 0.193848L51.3426 7.2302L58.5697 7.07631L52.6367 11.2737L55.0109 18.2198L49.2501 13.7784L43.4893 18.2198L45.8688 11.2737L39.9305 7.07631L47.1576 7.2302L49.2501 0.193848Z" fill="#292A74"/>
<path d="M68.8894 0.193848L70.9766 7.2302L78.2089 7.07631L72.2707 11.2737L74.645 18.2198L68.8894 13.7784L63.1286 18.2198L65.5028 11.2737L59.5698 7.07631L66.7969 7.2302L68.8894 0.193848Z" fill="#292A74"/>
<path d="M88.5285 0.193848L90.621 7.2302L97.8481 7.07631L91.9099 11.2737L94.2893 18.2198L88.5285 13.7784L82.7677 18.2198L85.142 11.2737L79.209 7.07631L86.4361 7.2302L88.5285 0.193848Z" fill="#292A74"/>
</g>
<defs>
<clipPath id="clip0_50_457">
<rect width="98" height="19" fill="white"/>
</clipPath>
</defs>
</svg>
