<?xml version="1.0" encoding="UTF-8"?><svg id="Layer_3" xmlns="http://www.w3.org/2000/svg" viewBox="0 0 191.64 37.69"><polygon points="19.11 2.25 23.11 15.51 36.97 15.22 25.59 23.13 30.14 36.22 19.11 27.85 8.07 36.22 12.62 23.13 1.25 15.22 15.1 15.51 19.11 2.25"/><polygon points="57.46 2.25 61.47 15.51 75.32 15.22 63.94 23.13 68.5 36.22 57.46 27.85 46.42 36.22 50.97 23.13 39.6 15.22 53.45 15.51 57.46 2.25"/><polygon points="95.81 2.25 99.82 15.51 113.67 15.22 102.3 23.13 106.85 36.22 95.81 27.85 84.77 36.22 89.33 23.13 77.95 15.22 91.8 15.51 95.81 2.25"/><polygon points="134.17 2.25 138.17 15.51 152.03 15.22 140.65 23.13 145.2 36.22 134.17 27.85 123.13 36.22 127.68 23.13 116.31 15.22 130.16 15.51 134.17 2.25"/><polygon points="172.52 2.25 176.53 15.51 190.38 15.22 179 23.13 183.56 36.22 172.52 27.85 161.48 36.22 166.03 23.13 154.66 15.22 168.51 15.51 172.52 2.25"/></svg>