<?xml version="1.0" encoding="UTF-8"?>
<svg id="Layer_1" data-name="Layer 1" xmlns="http://www.w3.org/2000/svg" viewBox="0 0 972 374.89">
  <defs>
    <style>
      .cls-1 {
        fill: #292a74;
      }
    </style>
  </defs>
  <path class="cls-1" d="m282.77,43.98c8.13,10.75,20.3,16.9,33.08,16.48,60.63-2.02,231.56-7.8,370.35-5.35,158.39,2.8,185.8-10.27,192.8,1.87,18.4,31.93-2.41,76.66-3.04,137.47-.73,69.95,32.59,131.51,1.76,153.53-14.23,10.17-460,3.11-562.99.51-11.28-.29-44.19-13.37-50.53-23.11-17.28-26.52-33.32-38.44-57.53-40.32-48.2-3.74-103.27,109.45-121.28,86.86-75.5-94.73-37.21-101.31,12.54-129.05,38.63-21.54,113.45-108.02,121.28-141.95,4.61-19.97-54.05-48.49-25.15-78.22,26.65-27.41,42.37-39.96,88.7,21.29Z"/>
</svg>