<svg width="1200" height="464" viewBox="0 0 1200 464" fill="none" xmlns="http://www.w3.org/2000/svg">
<g clip-path="url(#clip0_122_411)">
<path d="M349.099 55.0854C359.136 68.357 374.16 75.9496 389.938 75.431C464.79 72.9372 675.815 65.8014 847.16 68.8261C1042.7 72.2829 1076.54 56.1471 1085.19 71.1348C1107.9 110.555 1082.21 165.777 1081.43 240.851C1080.53 327.209 1121.67 403.209 1083.6 430.394C1066.04 442.95 515.704 434.234 388.556 431.024C374.63 430.666 334 414.517 326.173 402.493C304.84 369.752 285.037 355.036 255.148 352.715C195.642 348.098 127.654 487.838 105.42 459.95C12.2099 342.999 59.4815 334.875 120.901 300.629C168.593 274.036 260.963 167.271 270.63 125.382C276.321 100.727 203.901 65.5175 239.58 28.8138C272.481 -5.02575 291.889 -20.5196 349.086 55.0977L349.099 55.0854Z" fill="url(#paint0_linear_122_411)"/>
</g>
<defs>
<linearGradient id="paint0_linear_122_411" x1="358.583" y1="245.87" x2="906.173" y2="793.46" gradientUnits="userSpaceOnUse">
<stop stop-color="#2F357D"/>
<stop offset="0.994792" stop-color="#0B0E2D"/>
</linearGradient>
<clipPath id="clip0_122_411">
<rect width="1200" height="462.963" fill="white" transform="translate(0 0.808594)"/>
</clipPath>
</defs>
</svg>
