<?xml version="1.0" encoding="UTF-8"?>
<svg id="Layer_1" data-name="Layer 1" xmlns="http://www.w3.org/2000/svg" viewBox="0 0 972 389.96">
  <defs>
    <style>
      .cls-1 {
        fill: #a45920;
      }
    </style>
  </defs>
  <path class="cls-1" d="m255.78,41.47c8.95,11.19,15.64,16.78,29.7,17.47,65.69,3.22,287.52,7.02,442.2,4.44,118.91-1.98,183.64-12.27,195.86-1.83,30.6,26.12,11.15,48.94,8.27,125.96-2.21,59.32,26.08,139.19-7.17,161.8-15.61,10.61-536.79,3.24-650.15.53-12.41-.3-23-9.1-26.03-21.5-7.75-31.72-15.81-74.7-42.51-74.7-37.12,0-113.93,159.04-140.44,133.56S-11.83,273.57,30.9,252.7c24.37-11.9,162.02-117.86,154.95-137.88-7.07-20.02-57.26-56.02-25.44-86.96,29.33-28.53,44.36-50.13,95.36,13.61Z"/>
</svg>