<?xml version="1.0" encoding="UTF-8"?>
<svg xmlns="http://www.w3.org/2000/svg" xmlns:xlink="http://www.w3.org/1999/xlink" viewBox="0 0 972 428.01">
  <defs>
    <style>
      .cls-1 {
        fill: #8089b4;
      }

      .cls-2 {
        clip-path: url(#clippath-2);
      }

      .cls-3 {
        clip-path: url(#clippath-1);
      }

      .cls-4 {
        clip-path: url(#clippath);
      }

      .cls-5 {
        fill: none;
      }
    </style>
    <clipPath id="clippath">
      <path class="cls-5" d="m805.9,1355.85l-20.44-44.86s3.38.84,3.66-1.34-2.04-9.98-8.65-13.29c-2.04-.77-2.6.56-2.6.56,0,0-6.47-18.47-10.41-22.41s-85.64-44.81-85.64-44.81v-16.73s20.02,12.8,23.02,22.08c-3.47-11.72-8.62-20.06-13.12-24.56,14.16-4.97,25.41-9.84,23.34-28.5,0,0,.07,10.46-21.98,4.12-14.72-4.23-16.45-8.72-17.72-13.5s1.55-20.11-7.59-27.7-6.89-16.83-17.58-27.98c-6.28-6.56-9.47-10.12-9.47-10.12,0,0-.47-35.86,0-37.69s.89-7.88.89-12.09-1.68-32.53-1.1-34.03c.58-1.5-.78-7.71.04-9.93,1.31-3.56,1.08-6,.7-8.72s-2.04-6.79-4-8.87c-1.85-1.96-1.31-7.82-1.31-17.48s.09-20.25-2.44-25.59-4.03-13.22-4.97-15.66-1.59-2.91-1.41-4.59.69-5.16-.03-7.22-1.19-5.81-1.19-5.81c0,0,6.94-16.59,7.5-32.91,5.06-1.69,10.69-3.19,10.69-3.94s-.56-33,.75-56.62,3.94-31.88,2.44-53.25,2.16-45.66-1.69-50.44-4.12-5.91-4.78-8.62-24.09-23.25-25.97-24.38-35.25-23.34-53.25-31.59c-2.34-12.38-15.09-23.44-15.09-23.44l.75-2.44s14.52-1.12,17.15-14.34c2.98-15.01,3.54-12.87,4.01-19.05s-.7-10.97-5.77-9.77c1.59-11.81,6.24-43.25,3-55.06s-20.65-36.21-55.38-42.82H24.43v865.4h781.47Z"/>
    </clipPath>
    <clipPath id="clippath-1">
      <rect class="cls-5" x="24.43" y="465.66" width="1366" height="890.18"/>
    </clipPath>
    <clipPath id="clippath-2">
      <rect class="cls-5" x="849.5" y="490.44" width="1366" height="890.18"/>
    </clipPath>
    <image id="image" width="1375" height="1029" xlink:href="../../../../Desktop/Gabi things/CFC website assets/adjustmentFull.png"/>
  </defs>
  <g id="Layer_4" data-name="Layer 4">
    <g class="cls-4">
      <g class="cls-3">
        <use transform="translate(-117.63 307.67) scale(1.1)" xlink:href="#image"/>
      </g>
    </g>
    <g class="cls-2">
      <use transform="translate(707.44 332.45) scale(1.1)" xlink:href="#image"/>
    </g>
  </g>
  <g id="Layer_1" data-name="Layer 1">
    <path class="cls-1" d="m237.96,75.88c3.42,14.61,31.2,15.39,45.3,14.94,51.57-1.63,202.48-1.87,338.2.48,251.46,4.36,318.06-12.68,325.32.48,28.14,51.02-7.74,81.11-9,148.43-1.16,62,19.71,122.43,2.79,136.82-14.61,12.42-554.2,12.09-667.74,9.38-12.43-.3-23.04-9.1-26.07-21.5-7.76-31.72-5.82-88.23-32.56-88.23-37.17,0-95.64,174.73-122.19,149.25-26.55-25.48-60.19-65.22-38.94-112.55,21.24-47.32,139.31-146.58,132.23-166.6-7.08-20.02-61.64-61.18-32.99-95.92,40.29-48.84,57.65-94.54,85.65,25.01Z"/>
  </g>
</svg>