<svg width="1200" height="483" viewBox="0 0 1200 483" fill="none" xmlns="http://www.w3.org/2000/svg">
<g clip-path="url(#clip0_122_417)">
<path d="M315.778 51.8954C326.827 65.7102 335.087 72.6115 352.445 73.4634C433.543 77.4387 707.408 82.13 898.37 78.9448C1045.17 76.5004 1125.09 63.7967 1140.17 76.6856C1177.95 108.932 1153.94 137.105 1150.38 232.192C1147.65 305.426 1182.58 404.031 1141.53 431.945C1122.26 445.044 478.827 435.945 338.877 432.599C323.556 432.229 310.482 421.365 306.741 406.056C297.173 366.895 287.222 313.834 254.259 313.834C208.432 313.834 113.605 510.179 80.8766 478.723C48.1482 447.266 -14.6172 338.451 38.1482 312.686C68.2347 297.994 238.173 167.179 229.445 142.463C220.716 117.747 158.753 73.3029 198.037 35.1053C234.247 -0.116893 252.803 -26.7836 315.766 51.9078L315.778 51.8954Z" fill="url(#paint0_linear_122_417)"/>
</g>
<defs>
<linearGradient id="paint0_linear_122_417" x1="324.691" y1="217.101" x2="881.757" y2="774.167" gradientUnits="userSpaceOnUse">
<stop stop-color="#C88650"/>
<stop offset="1" stop-color="#A45920"/>
</linearGradient>
<clipPath id="clip0_122_417">
<rect width="1200" height="481.481" fill="white" transform="translate(0 0.709839)"/>
</clipPath>
</defs>
</svg>
