<?xml version="1.0" encoding="UTF-8"?><svg id="Layer_1" xmlns="http://www.w3.org/2000/svg" xmlns:xlink="http://www.w3.org/1999/xlink" viewBox="0 0 251.44 93.75"><defs><style>.cls-1{fill:url(#linear-gradient-2);}.cls-2,.cls-3{fill:#fff;}.cls-3{stroke:#fff;stroke-linecap:round;stroke-linejoin:round;stroke-width:1.83px;}.cls-4{fill:#212455;}.cls-5{fill:url(#linear-gradient);}</style><linearGradient id="linear-gradient" x1="212.46" y1="-2942.1" x2="221.55" y2="-2942.1" gradientTransform="translate(0 -2933.75) scale(1 -1)" gradientUnits="userSpaceOnUse"><stop offset="0" stop-color="#212455"/><stop offset=".5" stop-color="#292a74"/><stop offset="1" stop-color="#353f86"/></linearGradient><linearGradient id="linear-gradient-2" x1="188.01" y1="-2981.84" x2="240.85" y2="-2981.84" gradientTransform="translate(0 -2933.75) scale(1 -1)" gradientUnits="userSpaceOnUse"><stop offset="0" stop-color="#212455"/><stop offset=".25" stop-color="#292a74"/><stop offset="1" stop-color="#353f86"/></linearGradient></defs><g><path class="cls-3" d="M250.03,3.46s-.04,.05-.06,.07c.02-.02,.04-.04,.07-.06h-.01Z"/><path class="cls-3" d="M215.17,15.13s.01,0,.02,0c.29,.3,.6,.56,.92,.79h0s0,0,0,0c1.08,.77,2.29,1.12,3.48,.89,2.98-.59,4.71-4.52,3.88-8.8-.62-3.14-2.46-5.58-4.57-6.43h0s-.05-.03-.05-.03l-.51-.17h0c-.58-.15-1.18-.18-1.77-.07-2.98,.59-4.71,4.52-3.88,8.8,.41,2.06,1.32,3.8,2.5,5.01Z"/><path class="cls-3" d="M230.08,50c1.6-22.12,5.67-28.14,19.9-46.47-3.25,3-6.28,5.59-9.13,7.83h0c-21.27,16.76-32.55,13.88-50.69,9.89-.7-.16-1.41-.31-2.14-.46,6.09,2.66,11.19,5.21,15.48,8.02,8.69,5.68,14.07,12.39,17.62,23.1l.11,.36c-4.86,1.37-8.83,2.88-10.97,4.15-1.19,.7-1.81,1.33-1.69,1.82,.33,1.36,6.39,1.11,14.21-.47,0,0,0,0,0,.01,1.76,7.22,2.97,16.03,3.93,27.04,0,0,0-.02,0-.03v.06c.04,.42,.09,.84,.12,1.27,.07,.76,2.01,.66,2.02-.03,.27-12.41,.49-22.1,.87-29.98,0,0,0,0,0,0,7.95-2.17,13.74-4.78,13.4-6.17-.3-1.29-5.8-1.12-13.04,.25h0v-.19Zm-19.21,7.68c-.27-1.14,4.18-3.21,10.47-5.03h0s.05,.17,.05,.17c.45,1.44,.88,2.95,1.27,4.54-6.51,1.27-11.51,1.45-11.79,.31Zm19.22-7.49l-.03,.42c6.01-1.1,10.51-1.21,10.77-.11,.28,1.18-4.46,3.34-11.07,5.2,0,0,0,0-.01,0,0,0,0-.02,0-.03,.09-1.69,.18-3.31,.28-4.84l.02-.24,.03-.41h.01Z"/></g><g><path class="cls-2" d="M25.57,28.37c-1.27-1.08-2.3-1.84-3.12-2.29-1.65-.93-3.43-1.39-5.37-1.39-2.33,0-4.45,.63-6.38,1.91-3.56,2.35-5.34,6.4-5.34,12.14,0,3.79,.92,6.86,2.75,9.24,2.25,2.92,5.25,4.37,9.03,4.37,2.29,0,4.46-.58,6.51-1.73,.73-.41,1.65-1.05,2.75-1.93l.31,.5c-.16,.88-.28,1.75-.38,2.62-2.88,1.66-6.19,2.49-9.91,2.49-4.86,0-8.65-1.42-11.38-4.26-2.8-2.88-4.2-6.64-4.2-11.28,0-5.14,1.76-9.23,5.3-12.27,1.71-1.47,3.54-2.49,5.5-3.03,1.72-.47,3.64-.71,5.75-.71,2.69,0,5.08,.33,7.19,.97,.72,.21,1.63,.56,2.7,1.06-.37,1.15-.71,2.35-1.02,3.57l-.67,.02Z"/><path class="cls-2" d="M35.42,32.58c-.11,.72-.19,1.58-.21,2.6-.01,.47-.06,2.3-.12,5.48v3.42c0,1.92,.07,3.2,.19,3.85,.27,1.34,.88,2.34,1.82,2.98,.9,.61,1.94,.9,3.12,.9,1.72,0,3.07-.6,4.07-1.8,.71-.87,1.13-2.02,1.25-3.46,.1-1.22,.15-3.36,.15-6.41,0-3.8-.11-6.32-.35-7.57,.9,.07,1.59,.11,2.06,.11s1.13-.03,2.03-.11c-.15,1.14-.24,3.11-.28,5.91l-.05,3.62,.02,4.54c.01,2.67,.03,4.36,.07,5.06,.05,.61,.12,1.3,.24,2.08-.84-.07-1.47-.11-1.91-.11s-1.05,.03-1.91,.11c.15-1.25,.26-2.54,.35-3.88-.84,1.34-1.66,2.3-2.49,2.9-1.32,.95-2.89,1.42-4.7,1.42-2.11,0-3.82-.56-5.15-1.71-.84-.72-1.39-1.6-1.66-2.64-.29-1.15-.43-2.52-.43-4.11,0-.68,.05-2.46,.14-5.34,0-.19,0-.98-.02-2.38-.01-.98-.02-2-.02-3.05,0-.89-.1-1.71-.31-2.42,.9,.07,1.58,.11,2.03,.11s1.15-.03,2.08-.11h0Z"/><path class="cls-2" d="M54.8,53.78c.23-1.74,.35-5.2,.35-10.35,0-3.77-.11-7.4-.35-10.86,.89,.07,1.57,.11,2.01,.11s1.12-.03,2.01-.11c-.23,1.07-.35,2.12-.35,3.19,0,.01,0,.11,.02,.31,1.53-2.62,3.76-3.94,6.71-3.94,1.94,0,3.5,.52,4.66,1.56,.66,.58,1.19,1.5,1.6,2.79,.7-1.19,1.39-2.06,2.06-2.62,1.41-1.15,3.14-1.73,5.17-1.73s3.71,.63,4.94,1.89c.64,.68,1.07,1.41,1.28,2.2,.25,.9,.37,2.05,.37,3.4,0,.75-.01,1.69-.05,2.84-.06,2.43-.09,3.86-.09,4.33,0,3.3,.11,5.64,.33,7.02-.9-.07-1.58-.11-2.03-.11s-1.14,.03-2.06,.11c.23-2.14,.35-5.84,.35-11.12,0-2.25-.09-3.82-.28-4.71-.47-2.26-1.93-3.4-4.37-3.4s-3.97,1.08-4.68,3.24c-.36,1.1-.54,3.85-.54,8.27,0,3.63,.11,6.19,.35,7.73-.93-.07-1.62-.11-2.08-.11s-1.13,.03-2.03,.11c.23-1.45,.35-3.94,.35-7.51,0-2.87-.01-4.85-.05-5.93-.05-1.6-.24-2.77-.56-3.5-.68-1.53-1.97-2.29-3.85-2.29-1.4,0-2.59,.42-3.55,1.25-.97,.84-1.55,2.46-1.75,4.87-.07,.88-.11,2.95-.11,6.21,0,2.82,.11,5.13,.35,6.9-.93-.07-1.62-.11-2.08-.11s-1.13,.03-2.03,.11v-.02Z"/><path class="cls-2" d="M91.04,53.78c.23-1.74,.35-5.2,.35-10.35,0-3.77-.11-7.4-.35-10.86,.89,.07,1.57,.11,2.01,.11s1.12-.03,2.01-.11c-.23,1.07-.35,2.12-.35,3.19,0,.01,0,.11,.02,.31,1.53-2.62,3.76-3.94,6.71-3.94,1.94,0,3.5,.52,4.66,1.56,.66,.58,1.19,1.5,1.6,2.79,.7-1.19,1.39-2.06,2.06-2.62,1.41-1.15,3.14-1.73,5.17-1.73s3.71,.63,4.94,1.89c.64,.68,1.07,1.41,1.28,2.2,.25,.9,.37,2.05,.37,3.4,0,.75-.01,1.69-.05,2.84-.06,2.43-.09,3.86-.09,4.33,0,3.3,.11,5.64,.33,7.02-.9-.07-1.58-.11-2.03-.11s-1.14,.03-2.06,.11c.23-2.14,.35-5.84,.35-11.12,0-2.25-.09-3.82-.28-4.71-.47-2.26-1.93-3.4-4.37-3.4s-3.97,1.08-4.68,3.24c-.36,1.1-.54,3.85-.54,8.27,0,3.63,.11,6.19,.35,7.73-.93-.07-1.62-.11-2.08-.11s-1.13,.03-2.03,.11c.23-1.45,.35-3.94,.35-7.51,0-2.87-.01-4.85-.05-5.93-.05-1.6-.24-2.77-.56-3.5-.68-1.53-1.97-2.29-3.85-2.29-1.4,0-2.59,.42-3.55,1.25-.97,.84-1.55,2.46-1.75,4.87-.07,.88-.11,2.95-.11,6.21,0,2.82,.11,5.13,.35,6.9-.93-.07-1.62-.11-2.08-.11s-1.13,.03-2.03,.11v-.02Z"/><path class="cls-2" d="M130.06,22.81c.68,0,1.24,.25,1.68,.76,.38,.43,.59,.93,.59,1.49,0,.67-.25,1.23-.76,1.68-.42,.38-.93,.59-1.51,.59-.67,0-1.22-.25-1.66-.76-.38-.43-.59-.95-.59-1.54,0-.66,.25-1.2,.76-1.65,.42-.38,.92-.59,1.49-.59h0Zm-2.12,30.98c.15-1.01,.23-2.24,.24-3.68,.01-.62,.03-1.66,.05-3.12,.05-2.24,.07-3.84,.07-4.82s-.01-2.28-.05-3.83c-.03-1.39-.05-2.33-.05-2.81-.01-1.11-.1-2.09-.26-2.94,.9,.07,1.59,.11,2.06,.11s1.15-.03,2.06-.11c-.23,1.79-.35,5.46-.35,11.02,0,5.06,.11,8.46,.35,10.19-.9-.07-1.59-.11-2.06-.11s-1.14,.03-2.06,.11Z"/><path class="cls-2" d="M139.13,53.78c.23-1.73,.35-5.1,.35-10.08,0-3.65-.01-6.25-.05-7.8-.03-1.06-.14-2.18-.31-3.33,.88,.07,1.54,.11,1.97,.11s1.08-.03,1.97-.11c-.17,.84-.29,2.02-.35,3.57,1.83-2.69,4.19-4.02,7.07-4.02s4.82,.99,6.17,2.96c.53,.78,.87,1.71,.99,2.77,.06,.47,.09,1.18,.09,2.1s-.02,1.99-.07,3.24c-.05,1.3-.07,2.15-.07,2.53l.05,2.69c.01,2.18,.03,3.48,.07,3.9,.03,.41,.1,.89,.21,1.47-.9-.07-1.58-.11-2.03-.11s-1.14,.03-2.06,.11c.23-1.25,.35-4.14,.35-8.63,0-2.46-.01-4.07-.05-4.8-.06-1.39-.24-2.42-.54-3.1-.41-.93-1.1-1.63-2.08-2.1-.81-.41-1.67-.61-2.6-.61-1.37,0-2.52,.4-3.46,1.19-1.04,.9-1.64,2.63-1.8,5.17-.06,.82-.09,2.49-.09,4.98,0,2.87,.03,4.73,.09,5.58,.05,.67,.14,1.43,.26,2.32-.93-.07-1.62-.11-2.08-.11s-1.13,.03-2.03,.11h.01Z"/><path class="cls-2" d="M166.76,51.88c-1.2-.38-2.01-.82-2.44-1.3-.53-.58-.8-1.24-.8-2.01,0-.95,.37-1.76,1.13-2.42,.42-.37,1.18-.78,2.27-1.21-1.51-.49-2.59-1.08-3.22-1.77-.95-1.05-1.42-2.44-1.42-4.18,0-2.46,1.04-4.3,3.12-5.51,1.51-.89,3.58-1.34,6.19-1.34,.59,0,2.1,.07,4.52,.19,.29,.01,.6,.02,.93,.02,.96,0,2.33-.12,4.07-.37-.07,.53-.11,.93-.11,1.19s.03,.66,.11,1.19c-1.42-.17-2.8-.28-4.14-.33,.8,.68,1.36,1.32,1.65,1.92,.43,.9,.66,1.84,.66,2.81,0,1.76-.72,3.3-2.17,4.61-1.65,1.51-3.54,2.27-5.67,2.27l-2.27-.07c-1.03,0-1.79,.25-2.29,.73-.35,.32-.52,.71-.52,1.16,0,1.15,.84,1.73,2.51,1.73,.36,0,1.47-.03,3.31-.09,.43-.01,.79-.02,1.08-.02,2.14,0,3.82,.23,5.04,.67,.99,.37,1.81,1.04,2.43,1.99,.55,.82,.82,1.73,.82,2.7,0,2.29-1.05,4.27-3.14,5.93-1.98,1.57-4.53,2.36-7.66,2.36-2.24,0-4.15-.37-5.74-1.11-.89-.43-1.66-1.04-2.29-1.82-.71-.88-1.06-1.83-1.06-2.86,0-1.5,.69-2.77,2.08-3.79,.59-.43,1.6-.87,3.05-1.32v.05Zm4.81,.15c-1.88,0-3.32,.25-4.35,.76-1.73,.85-2.6,2.11-2.6,3.79s.66,2.8,1.97,3.59c1.08,.64,2.47,.97,4.18,.97,2.3,0,4.14-.49,5.48-1.47,1.3-.97,1.94-2.17,1.94-3.62,0-2.69-2.2-4.02-6.62-4.02Zm-.82-18.28c-1.66,0-2.89,.67-3.71,1.99-.53,.87-.8,1.9-.8,3.1,0,1.56,.37,2.8,1.13,3.74,.79,.97,1.85,1.45,3.19,1.45,1.76,0,3.06-.71,3.9-2.12,.52-.89,.78-1.94,.78-3.16,0-1.72-.52-3.03-1.56-3.94-.79-.71-1.76-1.06-2.92-1.06v.02Z"/><path class="cls-2" d="M183.43,52.51c.47-.95,.92-1.97,1.32-3.05,.69,1.08,1.33,1.83,1.92,2.25,.88,.61,1.91,.9,3.07,.9,1.25,0,2.29-.35,3.12-1.04,.82-.69,1.23-1.6,1.23-2.72s-.4-1.97-1.19-2.7c-.62-.58-1.86-1.12-3.72-1.63-2.12-.55-3.56-1.32-4.3-2.34-.73-.98-1.11-2.18-1.11-3.59,0-2.12,.77-3.79,2.32-4.99,1.25-.98,2.89-1.47,4.92-1.47,1.14,0,2.15,.15,3.01,.45,.46,.16,1.08,.47,1.86,.95-.32,.71-.75,1.73-1.28,3.05-.59-.93-1.12-1.57-1.58-1.94-.77-.59-1.65-.89-2.67-.89s-1.9,.31-2.58,.93c-.69,.63-1.04,1.51-1.04,2.64,0,1.24,.45,2.18,1.37,2.81,.68,.46,1.74,.89,3.2,1.28,1.47,.41,2.59,.82,3.36,1.28,.79,.45,1.42,1.18,1.91,2.18,.33,.7,.5,1.47,.5,2.27,0,1.46-.5,2.82-1.49,4.11-1.55,1.99-3.8,2.98-6.78,2.98-1.05,0-2.07-.15-3.05-.43-.62-.19-1.39-.62-2.32-1.3h0Z"/><path class="cls-2" d="M1.62,86.66c.1-1.08,.17-3.62,.2-7.58l.03-3.75v-3.69c-.01-1.55-.01-2.43-.01-2.66-.14-2.07-.21-3.2-.23-3.4,2.12,.16,4.05,.24,5.74,.24,1.18,0,3.04-.08,5.58-.24-.05,.44-.08,.77-.08,.98,0,.23,.02,.56,.08,1.01-2.21-.15-4.72-.23-7.54-.23h-.86c-.06,2.4-.09,4.5-.09,6.26v1.22c.97,.03,1.63,.05,1.95,.05,2.47,0,4.42-.08,5.82-.24-.05,.44-.08,.77-.08,.99s.02,.54,.08,.98c-2.19-.15-4.23-.23-6.1-.23h-1.67v1.29c.02,4.42,.09,7.41,.23,8.99-.67-.05-1.19-.08-1.53-.08s-.85,.02-1.53,.08h-.01Z"/><path class="cls-2" d="M15.12,75.48l.03-1.9c1.43-1.18,3.08-1.76,4.96-1.76,1.71,0,3.03,.52,3.98,1.57,.49,.53,.8,1.11,.94,1.74,.14,.61,.2,1.38,.2,2.3,0,.85-.03,2.67-.1,5.45,0,.38-.01,.68-.01,.88,0,.93,.1,1.51,.29,1.76,.19,.24,.47,.36,.85,.36,.11,0,.28-.02,.47-.06l.16,.72c-.75,.29-1.43,.44-2.08,.44s-1.08-.23-1.41-.67c-.17-.21-.34-.62-.51-1.22-1.56,1.25-3.13,1.89-4.69,1.89-1.06,0-1.99-.24-2.8-.72-1.03-.6-1.55-1.63-1.55-3.06,0-1.64,.71-2.81,2.15-3.51,.52-.25,1.34-.49,2.45-.71,.14-.03,.99-.19,2.55-.47,.97-.18,1.54-.4,1.71-.67,.1-.16,.15-.41,.15-.75,0-1.01-.15-1.77-.44-2.3-.59-1.05-1.6-1.57-3.06-1.57-.92,0-1.75,.2-2.47,.62-.43,.24-.76,.52-.98,.85-.11,.16-.26,.43-.42,.8h-.36Zm7.75,3.83c-2.32,.36-3.84,.72-4.58,1.07-1.13,.52-1.69,1.38-1.69,2.55,0,.89,.31,1.58,.92,2.08,.46,.37,1.06,.56,1.79,.56,.84,0,1.59-.23,2.27-.68,.35-.24,.75-.64,1.2-1.22,.05-1.79,.07-3.23,.09-4.36h.01Z"/><path class="cls-2" d="M29.05,86.66c.16-1.2,.24-3.56,.24-7.1,0-2.59-.08-5.07-.24-7.45,.61,.05,1.07,.08,1.38,.08s.77-.02,1.38-.08c-.16,.73-.24,1.46-.24,2.18,0,0,0,.08,.01,.2,1.05-1.8,2.59-2.7,4.6-2.7,1.33,0,2.4,.36,3.19,1.07,.44,.4,.81,1.04,1.1,1.91,.49-.81,.95-1.41,1.41-1.8,.97-.79,2.15-1.19,3.55-1.19s2.54,.43,3.38,1.29c.44,.46,.73,.97,.87,1.51,.17,.62,.25,1.4,.25,2.33,0,.52,0,1.16-.03,1.94-.05,1.66-.06,2.66-.06,2.97,0,2.26,.08,3.86,.23,4.8-.62-.05-1.08-.08-1.39-.08s-.79,.02-1.41,.08c.16-1.47,.24-4.01,.24-7.63,0-1.55-.07-2.62-.19-3.23-.33-1.56-1.32-2.33-2.99-2.33s-2.72,.75-3.21,2.23c-.25,.76-.37,2.64-.37,5.67,0,2.49,.08,4.25,.24,5.3-.63-.05-1.11-.08-1.42-.08s-.77,.02-1.39,.08c.16-.99,.24-2.7,.24-5.15,0-1.97,0-3.32-.03-4.07-.03-1.1-.16-1.9-.38-2.41-.46-1.05-1.34-1.57-2.64-1.57-.96,0-1.77,.28-2.43,.86-.67,.58-1.06,1.68-1.2,3.34-.05,.6-.08,2.02-.08,4.26,0,1.94,.08,3.51,.24,4.73-.63-.05-1.11-.08-1.42-.08s-.77,.02-1.4,.08h.02Z"/><path class="cls-2" d="M55.82,65.43c.46,0,.85,.17,1.15,.52,.27,.29,.4,.63,.4,1.03,0,.45-.17,.84-.52,1.15-.28,.27-.63,.4-1.04,.4-.45,0-.84-.17-1.14-.52-.27-.29-.4-.64-.4-1.05,0-.44,.17-.82,.52-1.13,.28-.27,.63-.4,1.03-.4Zm-1.46,21.23c.1-.69,.16-1.54,.16-2.52,0-.43,.02-1.14,.03-2.14,.03-1.54,.05-2.63,.05-3.31s0-1.57-.03-2.62c-.02-.95-.03-1.59-.03-1.93,0-.76-.07-1.43-.18-2.02,.62,.05,1.1,.08,1.41,.08s.79-.02,1.41-.08c-.16,1.22-.24,3.74-.24,7.55,0,3.47,.08,5.8,.24,6.99-.62-.05-1.1-.08-1.41-.08s-.79,.02-1.41,.08h.01Z"/><path class="cls-2" d="M61.28,64.01c.62,.05,1.1,.08,1.41,.08s.79-.02,1.41-.08c-.1,.88-.16,1.75-.19,2.63,0,.52-.01,1.95-.01,4.28l-.03,3.65,.03,4.16c0,2.89,0,4.76,.03,5.59,.03,.71,.09,1.49,.18,2.35-.62-.05-1.08-.08-1.39-.08-.33,0-.8,.02-1.42,.08,.14-1.37,.2-2.82,.2-4.37v-7.68s-.02-4.06-.02-4.06c0-2.84-.08-5.02-.19-6.54h-.01Z"/><path class="cls-2" d="M65.35,72.12c.76,.05,1.33,.08,1.72,.08s.95-.02,1.71-.08c.12,.86,.32,1.66,.55,2.38,.28,.81,.99,2.6,2.14,5.36,.62,1.48,1.15,2.7,1.6,3.65,.42-.86,.95-2.15,1.6-3.84,.28-.76,.6-1.6,.98-2.52,.87-2.11,1.39-3.8,1.55-5.03,.59,.05,1.03,.08,1.32,.08s.72-.02,1.31-.08c-.24,.43-.6,1.08-1.07,1.95-.52,.95-2.32,4.94-5.4,11.95-1.56,3.77-2.4,6.07-2.51,6.86-.59-.06-1.02-.09-1.31-.09s-.76,.03-1.33,.09c.2-.34,.56-.89,1.07-1.66,.43-.67,1.24-2.21,2.43-4.63-.34-.86-.92-2.27-1.75-4.23l-1.57-3.74c-1.54-3.46-2.54-5.64-3.03-6.52h-.01Z"/><path class="cls-2" d="M106.02,69.25c-.87-.75-1.58-1.27-2.14-1.57-1.13-.63-2.35-.95-3.68-.95-1.59,0-3.05,.44-4.38,1.31-2.44,1.62-3.66,4.38-3.66,8.33,0,2.59,.63,4.7,1.89,6.34,1.55,2,3.6,2.99,6.19,2.99,1.57,0,3.06-.4,4.46-1.19,.51-.28,1.13-.71,1.89-1.32l.2,.34c-.11,.6-.2,1.2-.27,1.8-1.98,1.14-4.25,1.71-6.8,1.71-3.33,0-5.93-.97-7.81-2.93-1.92-1.98-2.88-4.55-2.88-7.73,0-3.53,1.21-6.33,3.64-8.42,1.16-1.01,2.43-1.71,3.77-2.08,1.18-.33,2.5-.49,3.94-.49,1.84,0,3.48,.23,4.93,.67,.5,.15,1.11,.4,1.85,.72-.26,.79-.49,1.6-.7,2.45h-.44Z"/><path class="cls-2" d="M109.73,86.66c.14-.67,.2-1.66,.19-2.99,0-.52-.01-.89-.01-1.12,0-.6,0-1.36,.01-2.26,.03-1.71,.05-3.22,.05-4.53,0-4.96-.08-8.88-.24-11.78,.62,.06,1.08,.09,1.38,.09,.33,0,.8-.03,1.43-.09-.11,1.34-.18,4.06-.23,8.14v2.61c.35-.81,.79-1.42,1.29-1.83,.92-.73,2.05-1.1,3.4-1.1,1.94,0,3.38,.75,4.32,2.24,.45,.71,.68,1.83,.68,3.34,0,.21-.02,.97-.06,2.26-.02,.56-.03,1.19-.03,1.85,0,2.59,.08,4.32,.23,5.16-.62-.05-1.08-.08-1.39-.08s-.79,.02-1.41,.08c.16-1.21,.24-3.28,.24-6.21,0-2.38-.14-4-.4-4.84-.2-.63-.6-1.15-1.19-1.56-.56-.38-1.21-.58-1.94-.58-1.23,0-2.2,.47-2.93,1.41-.46,.6-.72,1.47-.77,2.62-.03,.69-.05,1.48-.05,2.37,0,3.39,.08,5.65,.24,6.78-.63-.05-1.11-.08-1.41-.08s-.79,.02-1.41,.08h.01Z"/><path class="cls-2" d="M127.98,65.43c.46,0,.85,.17,1.15,.52,.27,.29,.4,.63,.4,1.03,0,.45-.17,.84-.52,1.15-.28,.27-.63,.4-1.04,.4-.45,0-.84-.17-1.14-.52-.27-.29-.4-.64-.4-1.05,0-.44,.17-.82,.52-1.13,.28-.27,.63-.4,1.03-.4Zm-1.46,21.23c.1-.69,.16-1.54,.16-2.52,0-.43,.02-1.14,.03-2.14,.03-1.54,.05-2.63,.05-3.31s0-1.57-.03-2.62c-.02-.95-.03-1.59-.03-1.93,0-.76-.07-1.43-.18-2.02,.62,.05,1.1,.08,1.41,.08s.79-.02,1.41-.08c-.16,1.22-.24,3.74-.24,7.55,0,3.47,.08,5.8,.24,6.99-.62-.05-1.1-.08-1.41-.08s-.79,.02-1.41,.08h.01Z"/><path class="cls-2" d="M132.97,86.66c.16-1.28,.24-3.48,.24-6.6l-.03-3.4c-.02-1.73-.05-2.81-.06-3.23-.02-.37-.07-.81-.15-1.31,.67,.05,1.15,.08,1.48,.08s.82-.02,1.48-.08c-.16,.95-.24,1.82-.24,2.6,.68-.99,1.28-1.69,1.8-2.11,.66-.53,1.37-.8,2.14-.8,.29,0,.64,.06,1.05,.16-.2,.62-.33,1.04-.36,1.23-.05,.21-.1,.68-.15,1.4-.59-.28-1.12-.42-1.59-.42-1.54,0-2.47,.87-2.84,2.62-.14,.69-.2,2.49-.2,5.39,0,1.93,.08,3.42,.24,4.46-.62-.05-1.08-.08-1.39-.08-.33,0-.8,.02-1.42,.08h.01Z"/><path class="cls-2" d="M149.12,71.82c2.25,0,4.02,.77,5.32,2.3,1.15,1.37,1.74,3.08,1.74,5.16,0,2.42-.76,4.34-2.28,5.79-1.34,1.28-3.04,1.91-5.08,1.91-1.9,0-3.49-.53-4.79-1.6-1.63-1.36-2.45-3.3-2.45-5.83,0-1.57,.36-2.99,1.08-4.26,.66-1.13,1.59-2,2.82-2.62,1.1-.56,2.32-.85,3.65-.85h-.01Zm-.08,1.12c-1.47,0-2.6,.6-3.4,1.8-.89,1.31-1.33,2.92-1.33,4.84,0,2.21,.51,3.9,1.51,5.05,.75,.84,1.73,1.27,2.95,1.27,1.34,0,2.43-.55,3.25-1.67,.94-1.29,1.41-2.95,1.41-5.01s-.47-3.77-1.42-4.94c-.71-.88-1.71-1.32-2.97-1.32h0Z"/><path class="cls-2" d="M159.13,92.91c.16-1.13,.24-4.41,.24-9.82s-.08-9.31-.24-10.97c.59,.05,1.02,.08,1.31,.08s.73-.02,1.32-.08c-.07,.35-.15,1.31-.23,2.88,.21-.28,.36-.46,.42-.55,.5-.68,.84-1.1,1.01-1.29,.18-.18,.44-.37,.8-.58,.92-.52,1.89-.79,2.94-.79,1.19,0,2.28,.32,3.3,.95,1.94,1.22,2.9,3.32,2.9,6.32,0,2.54-.69,4.53-2.07,5.98-1.23,1.28-2.78,1.91-4.64,1.91-1.2,0-2.23-.29-3.08-.88-.37-.25-.81-.66-1.31-1.22,0,3.76,.08,6.44,.24,8.03-.66-.06-1.14-.09-1.47-.09s-.8,.03-1.43,.09v.03Zm6.86-19.8c-1.46,0-2.52,.58-3.19,1.72-.72,1.22-1.08,2.78-1.08,4.7s.34,3.43,1.03,4.53c.68,1.07,1.73,1.62,3.14,1.62s2.54-.61,3.25-1.84c.68-1.18,1.03-2.68,1.03-4.5,0-1.99-.36-3.54-1.1-4.64-.7-1.06-1.73-1.59-3.07-1.59h-.01Z"/><path class="cls-2" d="M176.35,86.66c.16-1.28,.24-3.48,.24-6.6l-.03-3.4c-.02-1.73-.05-2.81-.06-3.23-.02-.37-.07-.81-.15-1.31,.67,.05,1.15,.08,1.48,.08s.82-.02,1.48-.08c-.16,.95-.24,1.82-.24,2.6,.68-.99,1.28-1.69,1.8-2.11,.66-.53,1.37-.8,2.14-.8,.29,0,.64,.06,1.05,.16-.2,.62-.33,1.04-.36,1.23-.05,.21-.1,.68-.15,1.4-.59-.28-1.12-.42-1.59-.42-1.54,0-2.47,.87-2.84,2.62-.14,.69-.2,2.49-.2,5.39,0,1.93,.08,3.42,.24,4.46-.62-.05-1.08-.08-1.39-.08-.33,0-.8,.02-1.42,.08h.01Z"/><path class="cls-2" d="M186.26,75.48l.03-1.9c1.43-1.18,3.08-1.76,4.96-1.76,1.71,0,3.03,.52,3.98,1.57,.49,.53,.8,1.11,.94,1.74,.14,.61,.2,1.38,.2,2.3,0,.85-.03,2.67-.1,5.45,0,.38-.01,.68-.01,.88,0,.93,.1,1.51,.29,1.76,.19,.24,.47,.36,.85,.36,.11,0,.28-.02,.47-.06l.16,.72c-.75,.29-1.43,.44-2.08,.44s-1.08-.23-1.41-.67c-.17-.21-.34-.62-.51-1.22-1.56,1.25-3.13,1.89-4.69,1.89-1.06,0-1.99-.24-2.8-.72-1.03-.6-1.55-1.63-1.55-3.06,0-1.64,.71-2.81,2.15-3.51,.52-.25,1.34-.49,2.45-.71,.14-.03,.99-.19,2.55-.47,.97-.18,1.54-.4,1.71-.67,.1-.16,.15-.41,.15-.75,0-1.01-.15-1.77-.44-2.3-.59-1.05-1.6-1.57-3.06-1.57-.92,0-1.75,.2-2.47,.62-.43,.24-.76,.52-.98,.85-.11,.16-.26,.43-.42,.8h-.36Zm7.75,3.83c-2.32,.36-3.84,.72-4.58,1.07-1.13,.52-1.69,1.38-1.69,2.55,0,.89,.31,1.58,.92,2.08,.46,.37,1.06,.56,1.79,.56,.84,0,1.59-.23,2.27-.68,.35-.24,.75-.64,1.2-1.22,.05-1.79,.07-3.23,.09-4.36h.01Z"/><path class="cls-2" d="M212.63,75.43c-.98-1.67-2.34-2.51-4.07-2.51-1.39,0-2.54,.53-3.46,1.6-1.03,1.21-1.55,2.81-1.55,4.81s.51,3.51,1.53,4.72c1.03,1.21,2.3,1.81,3.83,1.81,1.04,0,2.02-.29,2.94-.89,.36-.24,.81-.61,1.33-1.13v1.6c-1.41,1.02-3.06,1.53-4.94,1.53-2.2,0-4.01-.72-5.43-2.18-1.33-1.38-2-3.16-2-5.37,0-2.36,.76-4.25,2.27-5.64,1.41-1.31,3.25-1.98,5.5-1.98,1.64,0,3.31,.43,5.02,1.28l-.8,2.32-.18,.03h.01Z"/><path class="cls-2" d="M214.71,72.07c.38,.1,.87,.15,1.43,.15,.06,0,.21,0,.46-.01,0-1.39-.02-2.4-.08-3.04,.94-.35,1.86-.76,2.76-1.24-.16,.97-.24,2.27-.24,3.9,0,.05,0,.17,.01,.38,.43,.02,.75,.03,.94,.03,1.12,0,1.93-.06,2.43-.16-.06,.28-.09,.5-.09,.63,0,.15,.03,.36,.09,.66-.34,.08-.73,.12-1.19,.14-.81,0-1.38,.01-1.69,.01-.08,0-.25,0-.51-.01-.06,2.56-.09,5.4-.09,8.51,0,2.5,.76,3.74,2.28,3.74,.38,0,.79-.11,1.22-.34v.89c-.68,.46-1.46,.7-2.32,.7-1.22,0-2.15-.37-2.78-1.12-.36-.43-.59-.87-.68-1.36-.11-.5-.16-1.08-.16-1.76,0-.35,.01-1.37,.05-3.06,.03-1.85,.05-3.25,.05-4.21,0-.32,0-.98-.01-1.99h-.95c-.36,0-.68-.05-.95-.14,.05-.28,.08-.51,.08-.66,0-.14-.02-.35-.08-.63h.01Z"/><path class="cls-2" d="M243.36,75.43c-.98-1.67-2.34-2.51-4.07-2.51-1.39,0-2.54,.53-3.46,1.6-1.03,1.21-1.55,2.81-1.55,4.81s.51,3.51,1.53,4.72c1.03,1.21,2.3,1.81,3.83,1.81,1.04,0,2.02-.29,2.94-.89,.36-.24,.81-.61,1.33-1.13v1.6c-1.41,1.02-3.06,1.53-4.94,1.53-2.2,0-4.01-.72-5.43-2.18-1.33-1.38-2-3.16-2-5.37,0-2.36,.76-4.25,2.27-5.64,1.41-1.31,3.25-1.98,5.5-1.98,1.64,0,3.31,.43,5.02,1.28l-.8,2.32-.18,.03h.01Z"/></g><g><path class="cls-4" d="M217.47,15.37c-.77,.15-1.55,.06-2.29-.24,1.28,1.31,2.86,1.99,4.41,1.68,2.98-.59,4.71-4.52,3.88-8.8-.62-3.16-2.47-5.63-4.61-6.45,1.18,1.21,2.1,2.96,2.5,5.01,.84,4.28-.89,8.21-3.88,8.8Z"/><path class="cls-4" d="M250.05,3.47c-3.28,3.03-6.33,5.64-9.2,7.9-8.64,11.91-11.56,19.26-12.86,37.2h0v.18s-.05,.42-.05,.42l-.02,.24h0c-.1,1.54-.2,3.14-.28,4.84,0,.14-.01,.28-.02,.42-.38,7.88-.6,17.58-.87,30,0,.05-.01,.09-.03,.14,.03,.44,.08,.88,.11,1.33,.07,.76,2.01,.66,2.02-.03,.27-12.42,.49-22.12,.87-30,0-.15,.01-.28,.02-.42,.09-1.69,.18-3.31,.28-4.84h0l.02-.24,.03-.42v-.18h0c1.6-22.15,5.68-28.16,19.95-46.54h.01Z"/><path class="cls-5" d="M216.54,1.32c-2.98,.59-4.71,4.52-3.88,8.8,.41,2.06,1.32,3.8,2.5,5.01,.75,.29,1.53,.38,2.29,.24,2.98-.59,4.71-4.52,3.88-8.8-.41-2.06-1.32-3.8-2.5-5.01-.75-.29-1.53-.38-2.29-.24Z"/><path class="cls-1" d="M240.85,11.37c-21.28,16.76-32.55,13.88-50.7,9.89-.7-.16-1.41-.31-2.14-.46,6.09,2.66,11.19,5.21,15.48,8.02,8.69,5.68,14.07,12.39,17.62,23.1h0l.11,.37,.12,.38,.05,.16h0c.45,1.45,.88,2.96,1.28,4.55,.03,.14,.07,.26,.1,.4,1.76,7.22,2.97,16.03,3.93,27.04,.02-.05,.03-.09,.03-.14,.27-12.42,.49-22.12,.87-30,0-.15,.01-.28,.02-.42,.09-1.69,.18-3.31,.28-4.84h0l.02-.24,.03-.42v-.18h0c1.3-17.93,4.23-25.29,12.86-37.2l.02-.02Z"/><path d="M230.09,50.19l-.03,.42c6.01-1.1,10.51-1.21,10.77-.11,.28,1.18-4.46,3.34-11.07,5.2-1.06,.29-2.17,.59-3.31,.86-1.3,.32-2.55,.58-3.76,.81-6.52,1.28-11.52,1.46-11.81,.32-.27-1.14,4.18-3.21,10.47-5.03l-.12-.38c-4.86,1.37-8.84,2.88-10.97,4.15-1.19,.7-1.81,1.33-1.69,1.82,.33,1.36,6.4,1.11,14.21-.47,1.21-.25,2.47-.52,3.75-.82,1.1-.26,2.17-.54,3.2-.82,7.95-2.17,13.74-4.78,13.4-6.17-.31-1.29-5.81-1.12-13.05,.25h.02Z"/></g></svg>