<?xml version="1.0" encoding="UTF-8"?><svg id="print_Cummings_" xmlns="http://www.w3.org/2000/svg" xmlns:xlink="http://www.w3.org/1999/xlink" viewBox="0 0 224.76 85.03"><defs><style>.cls-1{fill:url(#CFC_dark_to_light);}.cls-2{fill:#212455;}.cls-3{fill:url(#linear-gradient);}.cls-4{fill:#231f20;}</style><linearGradient id="CFC_dark_to_light" x1="189.89" y1="8.06" x2="197.94" y2="8.06" gradientUnits="userSpaceOnUse"><stop offset="0" stop-color="#212455"/><stop offset=".5" stop-color="#292a74"/><stop offset="1" stop-color="#353f87"/></linearGradient><linearGradient id="linear-gradient" x1="168.25" y1="43.23" x2="215.01" y2="43.23" gradientUnits="userSpaceOnUse"><stop offset="0" stop-color="#212455"/><stop offset=".25" stop-color="#292a74"/><stop offset="1" stop-color="#353f87"/></linearGradient></defs><g><path d="M24.48,25.78c-1.12-.96-2.04-1.63-2.76-2.03-1.46-.82-3.04-1.23-4.75-1.23-2.06,0-3.94,.56-5.65,1.69-3.15,2.08-4.73,5.66-4.73,10.74,0,3.35,.81,6.07,2.43,8.18,1.99,2.58,4.65,3.87,7.99,3.87,2.03,0,3.95-.51,5.76-1.53,.65-.36,1.46-.93,2.43-1.71l.27,.44c-.14,.78-.25,1.55-.34,2.32-2.55,1.47-5.48,2.2-8.77,2.2-4.3,0-7.66-1.26-10.07-3.77-2.48-2.55-3.72-5.88-3.72-9.98,0-4.55,1.56-8.17,4.69-10.86,1.51-1.3,3.13-2.2,4.87-2.68,1.52-.42,3.22-.63,5.09-.63,2.38,0,4.5,.29,6.36,.86,.64,.19,1.44,.5,2.39,.94-.33,1.02-.63,2.08-.9,3.16l-.59,.02Z"/><path d="M33.2,29.5c-.1,.64-.17,1.4-.19,2.3-.01,.42-.05,2.04-.11,4.85v3.03c0,1.7,.06,2.83,.17,3.41,.24,1.19,.78,2.07,1.61,2.64,.8,.54,1.72,.8,2.76,.8,1.52,0,2.72-.53,3.6-1.59,.63-.77,1-1.79,1.11-3.06,.09-1.08,.13-2.97,.13-5.67,0-3.36-.1-5.59-.31-6.7,.8,.06,1.41,.1,1.82,.1s1-.03,1.8-.1c-.13,1.01-.21,2.75-.25,5.23l-.04,3.2,.02,4.02c.01,2.36,.03,3.86,.06,4.48,.04,.54,.11,1.15,.21,1.84-.74-.06-1.3-.1-1.69-.1s-.93,.03-1.69,.1c.13-1.11,.23-2.25,.31-3.43-.74,1.19-1.47,2.04-2.2,2.57-1.17,.84-2.56,1.26-4.16,1.26-1.87,0-3.38-.5-4.56-1.51-.74-.64-1.23-1.42-1.47-2.34-.26-1.02-.38-2.23-.38-3.64,0-.6,.04-2.18,.12-4.73,0-.17,0-.87-.02-2.11-.01-.87-.02-1.77-.02-2.7,0-.79-.09-1.51-.27-2.14,.8,.06,1.4,.1,1.8,.1s1.02-.03,1.84-.1Z"/><path d="M50.35,48.27c.2-1.54,.31-4.6,.31-9.16,0-3.34-.1-6.55-.31-9.61,.79,.06,1.39,.1,1.78,.1s.99-.03,1.78-.1c-.2,.95-.31,1.88-.31,2.82,0,.01,0,.1,.02,.27,1.35-2.32,3.33-3.49,5.94-3.49,1.72,0,3.1,.46,4.12,1.38,.58,.51,1.05,1.33,1.42,2.47,.62-1.05,1.23-1.82,1.82-2.32,1.25-1.02,2.78-1.53,4.58-1.53s3.28,.56,4.37,1.67c.57,.6,.95,1.25,1.13,1.95,.22,.8,.33,1.81,.33,3.01,0,.66-.01,1.5-.04,2.51-.05,2.15-.08,3.42-.08,3.83,0,2.92,.1,4.99,.29,6.21-.8-.06-1.4-.1-1.8-.1s-1.01,.03-1.82,.1c.2-1.89,.31-5.17,.31-9.84,0-1.99-.08-3.38-.25-4.17-.42-2-1.71-3.01-3.87-3.01s-3.51,.96-4.14,2.87c-.32,.97-.48,3.41-.48,7.32,0,3.21,.1,5.48,.31,6.84-.82-.06-1.43-.1-1.84-.1s-1,.03-1.8,.1c.2-1.28,.31-3.49,.31-6.65,0-2.54-.01-4.29-.04-5.25-.04-1.42-.21-2.45-.5-3.1-.6-1.35-1.74-2.03-3.41-2.03-1.24,0-2.29,.37-3.14,1.11-.86,.74-1.37,2.18-1.55,4.31-.06,.78-.1,2.61-.1,5.5,0,2.5,.1,4.54,.31,6.11-.82-.06-1.43-.1-1.84-.1s-1,.03-1.8,.1Z"/><path d="M82.42,48.27c.2-1.54,.31-4.6,.31-9.16,0-3.34-.1-6.55-.31-9.61,.79,.06,1.39,.1,1.78,.1s.99-.03,1.78-.1c-.2,.95-.31,1.88-.31,2.82,0,.01,0,.1,.02,.27,1.35-2.32,3.33-3.49,5.94-3.49,1.72,0,3.1,.46,4.12,1.38,.58,.51,1.05,1.33,1.42,2.47,.62-1.05,1.23-1.82,1.82-2.32,1.25-1.02,2.78-1.53,4.58-1.53s3.28,.56,4.37,1.67c.57,.6,.95,1.25,1.13,1.95,.22,.8,.33,1.81,.33,3.01,0,.66-.01,1.5-.04,2.51-.05,2.15-.08,3.42-.08,3.83,0,2.92,.1,4.99,.29,6.21-.8-.06-1.4-.1-1.8-.1s-1.01,.03-1.82,.1c.2-1.89,.31-5.17,.31-9.84,0-1.99-.08-3.38-.25-4.17-.42-2-1.71-3.01-3.87-3.01s-3.51,.96-4.14,2.87c-.32,.97-.48,3.41-.48,7.32,0,3.21,.1,5.48,.31,6.84-.82-.06-1.43-.1-1.84-.1s-1,.03-1.8,.1c.2-1.28,.31-3.49,.31-6.65,0-2.54-.01-4.29-.04-5.25-.04-1.42-.21-2.45-.5-3.1-.6-1.35-1.74-2.03-3.41-2.03-1.24,0-2.29,.37-3.14,1.11-.86,.74-1.37,2.18-1.55,4.31-.06,.78-.1,2.61-.1,5.5,0,2.5,.1,4.54,.31,6.11-.82-.06-1.43-.1-1.84-.1s-1,.03-1.8,.1Z"/><path d="M116.96,20.86c.6,0,1.1,.22,1.49,.67,.34,.38,.52,.82,.52,1.32,0,.59-.22,1.09-.67,1.49-.37,.34-.82,.52-1.34,.52-.59,0-1.08-.22-1.47-.67-.34-.38-.52-.84-.52-1.36,0-.58,.22-1.06,.67-1.46,.37-.34,.81-.52,1.32-.52Zm-1.88,27.41c.13-.89,.2-1.98,.21-3.26,.01-.55,.03-1.47,.04-2.76,.04-1.98,.06-3.4,.06-4.27s-.01-2.02-.04-3.39c-.03-1.23-.04-2.06-.04-2.49-.01-.98-.09-1.85-.23-2.6,.8,.06,1.41,.1,1.82,.1s1.02-.03,1.82-.1c-.2,1.58-.31,4.83-.31,9.75,0,4.48,.1,7.49,.31,9.02-.8-.06-1.41-.1-1.82-.1s-1.01,.03-1.82,.1Z"/><path d="M124.99,48.27c.2-1.53,.31-4.51,.31-8.92,0-3.23-.01-5.53-.04-6.9-.03-.94-.12-1.93-.27-2.95,.78,.06,1.36,.1,1.74,.1s.96-.03,1.74-.1c-.15,.74-.26,1.79-.31,3.16,1.62-2.38,3.71-3.56,6.26-3.56s4.27,.88,5.46,2.62c.47,.69,.77,1.51,.88,2.45,.05,.42,.08,1.04,.08,1.86s-.02,1.76-.06,2.87c-.04,1.15-.06,1.9-.06,2.24l.04,2.38c.01,1.93,.03,3.08,.06,3.45,.03,.36,.09,.79,.19,1.3-.8-.06-1.4-.1-1.8-.1s-1.01,.03-1.82,.1c.2-1.11,.31-3.66,.31-7.64,0-2.18-.01-3.6-.04-4.25-.05-1.23-.21-2.14-.48-2.74-.36-.82-.97-1.44-1.84-1.86-.72-.36-1.48-.54-2.3-.54-1.21,0-2.23,.35-3.06,1.05-.92,.8-1.45,2.33-1.59,4.58-.05,.73-.08,2.2-.08,4.41,0,2.54,.03,4.19,.08,4.94,.04,.59,.12,1.27,.23,2.05-.82-.06-1.43-.1-1.84-.1s-1,.03-1.8,.1Z"/><path d="M149.44,46.58c-1.06-.34-1.78-.73-2.16-1.15-.47-.51-.71-1.1-.71-1.78,0-.84,.33-1.56,1-2.14,.37-.33,1.04-.69,2.01-1.07-1.34-.43-2.29-.96-2.85-1.57-.84-.93-1.26-2.16-1.26-3.7,0-2.18,.92-3.81,2.76-4.88,1.34-.79,3.17-1.19,5.48-1.19,.52,0,1.86,.06,4,.17,.26,.01,.53,.02,.82,.02,.85,0,2.06-.11,3.6-.33-.06,.47-.1,.82-.1,1.05s.03,.58,.1,1.05c-1.26-.15-2.48-.25-3.66-.29,.71,.6,1.2,1.17,1.46,1.7,.38,.8,.58,1.63,.58,2.49,0,1.56-.64,2.92-1.92,4.08-1.46,1.34-3.13,2.01-5.02,2.01l-2.01-.06c-.91,0-1.58,.22-2.03,.65-.31,.28-.46,.63-.46,1.03,0,1.02,.74,1.53,2.22,1.53,.32,0,1.3-.03,2.93-.08,.38-.01,.7-.02,.96-.02,1.89,0,3.38,.2,4.46,.59,.88,.33,1.6,.92,2.15,1.76,.49,.73,.73,1.53,.73,2.39,0,2.03-.93,3.78-2.78,5.25-1.75,1.39-4.01,2.09-6.78,2.09-1.98,0-3.67-.33-5.08-.98-.79-.38-1.47-.92-2.03-1.61-.63-.78-.94-1.62-.94-2.53,0-1.33,.61-2.45,1.84-3.35,.52-.38,1.42-.77,2.7-1.17Zm4.27,.13c-1.66,0-2.94,.22-3.85,.67-1.53,.75-2.3,1.87-2.3,3.35s.58,2.48,1.74,3.18c.96,.57,2.19,.86,3.7,.86,2.04,0,3.66-.43,4.85-1.3,1.15-.86,1.72-1.92,1.72-3.2,0-2.38-1.95-3.56-5.86-3.56Zm-.73-16.18c-1.47,0-2.56,.59-3.28,1.76-.47,.77-.71,1.68-.71,2.74,0,1.38,.33,2.48,1,3.31,.7,.86,1.64,1.28,2.82,1.28,1.56,0,2.71-.63,3.45-1.88,.46-.79,.69-1.72,.69-2.8,0-1.52-.46-2.68-1.38-3.49-.7-.63-1.56-.94-2.58-.94Z"/><path d="M164.19,47.14c.42-.84,.81-1.74,1.17-2.7,.61,.96,1.18,1.62,1.7,1.99,.78,.54,1.69,.8,2.72,.8,1.11,0,2.03-.31,2.76-.92,.73-.61,1.09-1.42,1.09-2.41,0-.94-.35-1.74-1.05-2.39-.55-.51-1.65-.99-3.29-1.44-1.88-.49-3.15-1.17-3.81-2.07-.65-.87-.98-1.93-.98-3.18,0-1.88,.68-3.35,2.05-4.42,1.11-.87,2.56-1.3,4.35-1.3,1.01,0,1.9,.13,2.66,.4,.41,.14,.96,.42,1.65,.84-.28,.63-.66,1.53-1.13,2.7-.52-.82-.99-1.39-1.4-1.72-.68-.52-1.46-.79-2.36-.79s-1.68,.27-2.28,.82c-.61,.56-.92,1.34-.92,2.34,0,1.1,.4,1.93,1.21,2.49,.6,.41,1.54,.79,2.83,1.13,1.3,.36,2.29,.73,2.97,1.13,.7,.4,1.26,1.04,1.69,1.93,.29,.62,.44,1.3,.44,2.01,0,1.29-.44,2.5-1.32,3.64-1.37,1.76-3.36,2.64-6,2.64-.93,0-1.83-.13-2.7-.38-.55-.17-1.23-.55-2.05-1.15Z"/><path d="M3.28,77.37c.09-.96,.15-3.2,.18-6.71l.03-3.32v-3.27c-.01-1.37-.01-2.15-.01-2.35-.12-1.83-.19-2.83-.2-3.01,1.88,.14,3.58,.21,5.08,.21,1.04,0,2.69-.07,4.94-.21-.04,.39-.07,.68-.07,.87,0,.2,.02,.5,.07,.89-1.96-.13-4.18-.2-6.67-.2h-.76c-.05,2.12-.08,3.98-.08,5.54v1.08c.86,.03,1.44,.04,1.73,.04,2.19,0,3.91-.07,5.15-.21-.04,.39-.07,.68-.07,.88s.02,.48,.07,.87c-1.94-.13-3.74-.2-5.4-.2h-1.48v1.14c.02,3.91,.08,6.56,.2,7.96-.59-.04-1.05-.07-1.35-.07s-.75,.02-1.35,.07Z"/><path d="M15.23,67.47l.03-1.68c1.27-1.04,2.73-1.56,4.39-1.56,1.51,0,2.68,.46,3.52,1.39,.43,.47,.71,.98,.83,1.54,.12,.54,.18,1.22,.18,2.04,0,.75-.03,2.36-.09,4.82,0,.34-.01,.6-.01,.78,0,.82,.09,1.34,.26,1.56,.17,.21,.42,.32,.75,.32,.1,0,.25-.02,.42-.05l.14,.64c-.66,.26-1.27,.39-1.84,.39s-.96-.2-1.25-.59c-.15-.19-.3-.55-.45-1.08-1.38,1.11-2.77,1.67-4.15,1.67-.94,0-1.76-.21-2.48-.64-.91-.53-1.37-1.44-1.37-2.71,0-1.45,.63-2.49,1.9-3.11,.46-.22,1.19-.43,2.17-.63,.12-.03,.88-.17,2.26-.42,.86-.16,1.36-.35,1.51-.59,.09-.14,.13-.36,.13-.66,0-.89-.13-1.57-.39-2.04-.52-.93-1.42-1.39-2.71-1.39-.81,0-1.55,.18-2.19,.55-.38,.21-.67,.46-.87,.75-.1,.14-.23,.38-.37,.71h-.33Zm6.86,3.4c-2.05,.32-3.4,.64-4.05,.95-1,.46-1.5,1.22-1.5,2.26,0,.79,.27,1.4,.81,1.84,.41,.33,.94,.5,1.58,.5,.74,0,1.41-.2,2.01-.6,.31-.21,.66-.57,1.06-1.08,.04-1.58,.06-2.86,.08-3.86Z"/><path d="M27.56,77.37c.14-1.06,.21-3.15,.21-6.28,0-2.29-.07-4.49-.21-6.59,.54,.04,.95,.07,1.22,.07s.68-.02,1.22-.07c-.14,.65-.21,1.29-.21,1.93,0,0,0,.07,.01,.18,.93-1.59,2.29-2.39,4.07-2.39,1.18,0,2.12,.32,2.82,.95,.39,.35,.72,.92,.97,1.69,.43-.72,.84-1.25,1.25-1.59,.86-.7,1.9-1.05,3.14-1.05s2.25,.38,2.99,1.14c.39,.41,.65,.86,.77,1.34,.15,.55,.22,1.24,.22,2.06,0,.46,0,1.03-.03,1.72-.04,1.47-.05,2.35-.05,2.63,0,2,.07,3.42,.2,4.25-.55-.04-.96-.07-1.23-.07s-.7,.02-1.25,.07c.14-1.3,.21-3.55,.21-6.75,0-1.37-.06-2.32-.17-2.86-.29-1.38-1.17-2.06-2.65-2.06s-2.41,.66-2.84,1.97c-.22,.67-.33,2.34-.33,5.02,0,2.2,.07,3.76,.21,4.69-.56-.04-.98-.07-1.26-.07s-.68,.02-1.23,.07c.14-.88,.21-2.39,.21-4.56,0-1.74,0-2.94-.03-3.6-.03-.97-.14-1.68-.34-2.13-.41-.93-1.19-1.39-2.34-1.39-.85,0-1.57,.25-2.15,.76-.59,.51-.94,1.49-1.06,2.96-.04,.53-.07,1.79-.07,3.77,0,1.72,.07,3.11,.21,4.19-.56-.04-.98-.07-1.26-.07s-.68,.02-1.24,.07Z"/><path d="M51.25,58.58c.41,0,.75,.15,1.02,.46,.24,.26,.35,.56,.35,.91,0,.4-.15,.74-.46,1.02-.25,.24-.56,.35-.92,.35-.4,0-.74-.15-1.01-.46-.24-.26-.35-.57-.35-.93,0-.39,.15-.73,.46-1,.25-.24,.56-.35,.91-.35Zm-1.29,18.79c.09-.61,.14-1.36,.14-2.23,0-.38,.02-1.01,.03-1.89,.03-1.36,.04-2.33,.04-2.93s0-1.39-.03-2.32c-.02-.84-.03-1.41-.03-1.71,0-.67-.06-1.27-.16-1.79,.55,.04,.97,.07,1.25,.07s.7-.02,1.25-.07c-.14,1.08-.21,3.31-.21,6.68,0,3.07,.07,5.13,.21,6.19-.55-.04-.97-.07-1.25-.07s-.7,.02-1.25,.07Z"/><path d="M56.09,57.32c.55,.04,.97,.07,1.25,.07s.7-.02,1.25-.07c-.09,.78-.14,1.55-.17,2.33,0,.46-.01,1.73-.01,3.79l-.03,3.23,.03,3.68c0,2.56,0,4.21,.03,4.95,.03,.63,.08,1.32,.16,2.08-.55-.04-.96-.07-1.23-.07-.29,0-.71,.02-1.26,.07,.12-1.21,.18-2.5,.18-3.87v-2.86s.01-3.94,.01-3.94l-.03-3.59c0-2.51-.07-4.44-.17-5.79Z"/><path d="M59.69,64.5c.67,.04,1.18,.07,1.52,.07s.84-.02,1.51-.07c.11,.76,.28,1.47,.49,2.11,.25,.72,.88,2.3,1.89,4.74,.55,1.31,1.02,2.39,1.42,3.23,.37-.76,.84-1.9,1.42-3.4,.25-.67,.53-1.42,.87-2.23,.77-1.87,1.23-3.36,1.37-4.45,.52,.04,.91,.07,1.17,.07s.64-.02,1.16-.07c-.21,.38-.53,.96-.95,1.73-.46,.84-2.05,4.37-4.78,10.58-1.38,3.34-2.12,5.37-2.22,6.07-.52-.05-.9-.08-1.16-.08-.27,0-.67,.03-1.18,.08,.18-.3,.5-.79,.95-1.47,.38-.59,1.1-1.96,2.15-4.1-.3-.76-.81-2.01-1.55-3.74l-1.39-3.31c-1.36-3.06-2.25-4.99-2.68-5.77Z"/><path d="M95.68,61.96c-.77-.66-1.4-1.12-1.89-1.39-1-.56-2.08-.84-3.26-.84-1.41,0-2.7,.39-3.88,1.16-2.16,1.43-3.24,3.88-3.24,7.37,0,2.29,.56,4.16,1.67,5.61,1.37,1.77,3.19,2.65,5.48,2.65,1.39,0,2.71-.35,3.95-1.05,.45-.25,1-.63,1.67-1.17l.18,.3c-.1,.53-.18,1.06-.24,1.59-1.75,1.01-3.76,1.51-6.02,1.51-2.95,0-5.25-.86-6.91-2.59-1.7-1.75-2.55-4.03-2.55-6.84,0-3.12,1.07-5.6,3.22-7.45,1.03-.89,2.15-1.51,3.34-1.84,1.04-.29,2.21-.43,3.49-.43,1.63,0,3.08,.2,4.36,.59,.44,.13,.98,.35,1.64,.64-.23,.7-.43,1.42-.62,2.17h-.41Z"/><path d="M98.97,77.37c.12-.59,.18-1.47,.17-2.65,0-.46-.01-.79-.01-.99,0-.53,0-1.2,.01-2,.03-1.51,.04-2.85,.04-4.01,0-4.39-.07-7.86-.21-10.43,.55,.05,.96,.08,1.22,.08,.29,0,.71-.03,1.27-.08-.1,1.19-.16,3.59-.2,7.2v2.31c.31-.72,.7-1.26,1.14-1.62,.81-.65,1.81-.97,3.01-.97,1.72,0,2.99,.66,3.82,1.98,.4,.63,.6,1.62,.6,2.96,0,.19-.02,.86-.05,2-.02,.5-.03,1.05-.03,1.64,0,2.29,.07,3.82,.2,4.57-.55-.04-.96-.07-1.23-.07s-.7,.02-1.25,.07c.14-1.07,.21-2.9,.21-5.5,0-2.11-.12-3.54-.35-4.28-.18-.56-.53-1.02-1.05-1.38-.5-.34-1.07-.51-1.72-.51-1.09,0-1.95,.42-2.59,1.25-.41,.53-.64,1.3-.68,2.32-.03,.61-.04,1.31-.04,2.1,0,3,.07,5,.21,6-.56-.04-.98-.07-1.25-.07s-.7,.02-1.25,.07Z"/><path d="M115.12,58.58c.41,0,.75,.15,1.02,.46,.24,.26,.35,.56,.35,.91,0,.4-.15,.74-.46,1.02-.25,.24-.56,.35-.92,.35-.4,0-.74-.15-1.01-.46-.24-.26-.35-.57-.35-.93,0-.39,.15-.73,.46-1,.25-.24,.56-.35,.91-.35Zm-1.29,18.79c.09-.61,.14-1.36,.14-2.23,0-.38,.02-1.01,.03-1.89,.03-1.36,.04-2.33,.04-2.93s0-1.39-.03-2.32c-.02-.84-.03-1.41-.03-1.71,0-.67-.06-1.27-.16-1.79,.55,.04,.97,.07,1.25,.07s.7-.02,1.25-.07c-.14,1.08-.21,3.31-.21,6.68,0,3.07,.07,5.13,.21,6.19-.55-.04-.97-.07-1.25-.07s-.7,.02-1.25,.07Z"/><path d="M119.53,77.37c.14-1.13,.21-3.08,.21-5.84l-.03-3.01c-.02-1.53-.04-2.49-.05-2.86-.02-.33-.06-.72-.13-1.16,.59,.04,1.02,.07,1.31,.07s.73-.02,1.31-.07c-.14,.84-.21,1.61-.21,2.3,.6-.88,1.13-1.5,1.59-1.87,.58-.47,1.21-.71,1.89-.71,.26,0,.57,.05,.93,.14-.18,.55-.29,.92-.32,1.09-.04,.19-.09,.6-.13,1.24-.52-.25-.99-.37-1.41-.37-1.36,0-2.19,.77-2.51,2.32-.12,.61-.18,2.2-.18,4.77,0,1.71,.07,3.03,.21,3.95-.55-.04-.96-.07-1.23-.07-.29,0-.71,.02-1.26,.07Z"/><path d="M133.83,64.23c1.99,0,3.56,.68,4.71,2.04,1.02,1.21,1.54,2.73,1.54,4.57,0,2.14-.67,3.84-2.02,5.12-1.19,1.13-2.69,1.69-4.5,1.69-1.68,0-3.09-.47-4.24-1.42-1.44-1.2-2.17-2.92-2.17-5.16,0-1.39,.32-2.65,.96-3.77,.58-1,1.41-1.77,2.5-2.32,.97-.5,2.05-.75,3.23-.75Zm-.07,.99c-1.3,0-2.3,.53-3.01,1.59-.79,1.16-1.18,2.58-1.18,4.28,0,1.96,.45,3.45,1.34,4.47,.66,.74,1.53,1.12,2.61,1.12,1.19,0,2.15-.49,2.88-1.48,.83-1.14,1.25-2.61,1.25-4.43s-.42-3.34-1.26-4.37c-.63-.78-1.51-1.17-2.63-1.17Z"/><path d="M142.69,82.9c.14-1,.21-3.9,.21-8.69s-.07-8.24-.21-9.71c.52,.04,.9,.07,1.16,.07s.65-.02,1.17-.07c-.06,.31-.13,1.16-.2,2.55,.19-.25,.32-.41,.37-.49,.44-.6,.74-.97,.89-1.14,.16-.16,.39-.33,.71-.51,.81-.46,1.67-.7,2.6-.7,1.05,0,2.02,.28,2.92,.84,1.72,1.08,2.57,2.94,2.57,5.59,0,2.25-.61,4.01-1.83,5.29-1.09,1.13-2.46,1.69-4.11,1.69-1.06,0-1.97-.26-2.73-.78-.33-.22-.72-.58-1.16-1.08,0,3.33,.07,5.7,.21,7.11-.58-.05-1.01-.08-1.3-.08s-.71,.03-1.27,.08Zm6.07-17.52c-1.29,0-2.23,.51-2.82,1.52-.64,1.08-.96,2.46-.96,4.16s.3,3.04,.91,4.01c.6,.95,1.53,1.43,2.78,1.43s2.25-.54,2.88-1.63c.6-1.04,.91-2.37,.91-3.98,0-1.76-.32-3.13-.97-4.11-.62-.94-1.53-1.41-2.72-1.41Z"/><path d="M157.93,77.37c.14-1.13,.21-3.08,.21-5.84l-.03-3.01c-.02-1.53-.04-2.49-.05-2.86-.02-.33-.06-.72-.13-1.16,.59,.04,1.02,.07,1.31,.07s.73-.02,1.31-.07c-.14,.84-.21,1.61-.21,2.3,.6-.88,1.13-1.5,1.59-1.87,.58-.47,1.21-.71,1.89-.71,.26,0,.57,.05,.93,.14-.18,.55-.29,.92-.32,1.09-.04,.19-.09,.6-.13,1.24-.52-.25-.99-.37-1.41-.37-1.36,0-2.19,.77-2.51,2.32-.12,.61-.18,2.2-.18,4.77,0,1.71,.07,3.03,.21,3.95-.55-.04-.96-.07-1.23-.07-.29,0-.71,.02-1.26,.07Z"/><path d="M166.7,67.47l.03-1.68c1.27-1.04,2.73-1.56,4.39-1.56,1.51,0,2.68,.46,3.52,1.39,.43,.47,.71,.98,.83,1.54,.12,.54,.18,1.22,.18,2.04,0,.75-.03,2.36-.09,4.82,0,.34-.01,.6-.01,.78,0,.82,.09,1.34,.26,1.56,.17,.21,.42,.32,.75,.32,.1,0,.25-.02,.42-.05l.14,.64c-.66,.26-1.27,.39-1.84,.39s-.96-.2-1.25-.59c-.15-.19-.3-.55-.45-1.08-1.38,1.11-2.77,1.67-4.15,1.67-.94,0-1.76-.21-2.48-.64-.91-.53-1.37-1.44-1.37-2.71,0-1.45,.63-2.49,1.9-3.11,.46-.22,1.19-.43,2.17-.63,.12-.03,.88-.17,2.26-.42,.86-.16,1.36-.35,1.51-.59,.09-.14,.13-.36,.13-.66,0-.89-.13-1.57-.39-2.04-.52-.93-1.42-1.39-2.71-1.39-.81,0-1.55,.18-2.19,.55-.38,.21-.67,.46-.87,.75-.1,.14-.23,.38-.37,.71h-.33Zm6.86,3.4c-2.05,.32-3.4,.64-4.05,.95-1,.46-1.5,1.22-1.5,2.26,0,.79,.27,1.4,.81,1.84,.41,.33,.94,.5,1.58,.5,.74,0,1.41-.2,2.01-.6,.31-.21,.66-.57,1.06-1.08,.04-1.58,.06-2.86,.08-3.86Z"/><path d="M190.04,67.43c-.87-1.48-2.07-2.22-3.6-2.22-1.23,0-2.25,.47-3.06,1.42-.91,1.07-1.37,2.49-1.37,4.26s.45,3.11,1.35,4.18c.91,1.07,2.04,1.6,3.39,1.6,.92,0,1.79-.26,2.6-.79,.32-.21,.72-.54,1.18-1v1.42c-1.25,.9-2.71,1.35-4.37,1.35-1.95,0-3.55-.64-4.81-1.93-1.18-1.22-1.77-2.8-1.77-4.75,0-2.09,.67-3.76,2.01-4.99,1.25-1.16,2.88-1.75,4.87-1.75,1.45,0,2.93,.38,4.44,1.13l-.71,2.05-.16,.03Z"/><path d="M191.88,64.45c.34,.09,.77,.13,1.27,.13,.05,0,.19,0,.41-.01,0-1.23-.02-2.12-.07-2.69,.83-.31,1.65-.67,2.44-1.1-.14,.86-.21,2.01-.21,3.45,0,.04,0,.15,.01,.34,.38,.02,.66,.03,.83,.03,.99,0,1.71-.05,2.15-.14-.05,.25-.08,.44-.08,.56,0,.13,.03,.32,.08,.58-.3,.07-.65,.11-1.05,.12-.72,0-1.22,.01-1.5,.01-.07,0-.22,0-.45-.01-.05,2.27-.08,4.78-.08,7.53,0,2.21,.67,3.31,2.02,3.31,.34,0,.7-.1,1.08-.3v.79c-.6,.41-1.29,.62-2.05,.62-1.08,0-1.9-.33-2.46-.99-.32-.38-.52-.77-.6-1.2-.1-.44-.14-.96-.14-1.56,0-.31,.01-1.21,.04-2.71,.03-1.64,.04-2.88,.04-3.73,0-.28,0-.87-.01-1.76h-.84c-.32,0-.6-.04-.84-.12,.04-.25,.07-.45,.07-.58,0-.12-.02-.31-.07-.56Z"/><path d="M217.23,67.43c-.87-1.48-2.07-2.22-3.6-2.22-1.23,0-2.25,.47-3.06,1.42-.91,1.07-1.37,2.49-1.37,4.26s.45,3.11,1.35,4.18c.91,1.07,2.04,1.6,3.39,1.6,.92,0,1.79-.26,2.6-.79,.32-.21,.72-.54,1.18-1v1.42c-1.25,.9-2.71,1.35-4.37,1.35-1.95,0-3.55-.64-4.81-1.93-1.18-1.22-1.77-2.8-1.77-4.75,0-2.09,.67-3.76,2.01-4.99,1.25-1.16,2.88-1.75,4.87-1.75,1.45,0,2.93,.38,4.44,1.13l-.71,2.05-.16,.03Z"/></g><g><path class="cls-2" d="M194.32,14.27c-.68,.13-1.37,.05-2.03-.21,1.13,1.16,2.53,1.76,3.9,1.49,2.64-.52,4.17-4,3.43-7.79-.55-2.8-2.19-4.98-4.08-5.71,1.04,1.07,1.86,2.62,2.21,4.43,.74,3.79-.79,7.27-3.43,7.79Z"/><path class="cls-2" d="M223.15,3.74c-2.9,2.68-5.6,4.99-8.14,6.99-7.65,10.54-10.23,17.05-11.38,32.92h0s-.01,.16-.01,.16l-.03,.37-.02,.21h0c-.09,1.36-.18,2.78-.25,4.28,0,.12-.01,.25-.02,.37-.34,6.97-.53,15.56-.77,26.55,0,.04-.01,.08-.03,.12,.03,.39,.07,.78,.1,1.18,.06,.67,1.78,.58,1.79-.03,.24-10.99,.43-19.58,.77-26.55,0-.13,.01-.25,.02-.37,.08-1.5,.16-2.93,.25-4.28h0s.02-.21,.02-.21l.03-.37v-.16s0,0,0,0c1.42-19.6,5.03-24.92,17.66-41.19Z"/><path class="cls-1" d="M193.5,1.84c-2.64,.52-4.17,4-3.43,7.79,.36,1.82,1.17,3.36,2.21,4.43,.66,.26,1.35,.34,2.03,.21,2.64-.52,4.17-4,3.43-7.79-.36-1.82-1.17-3.36-2.21-4.43-.66-.26-1.35-.34-2.03-.21Z"/><path class="cls-3" d="M215.01,10.73c-18.83,14.83-28.81,12.28-44.87,8.75-.62-.14-1.25-.27-1.89-.41,5.39,2.35,9.9,4.61,13.7,7.1,7.69,5.03,12.45,10.97,15.59,20.44h0s.1,.33,.1,.33l.11,.34,.04,.14h0c.4,1.28,.78,2.62,1.13,4.03,.03,.12,.06,.23,.09,.35,1.56,6.39,2.63,14.19,3.48,23.93,.02-.04,.03-.08,.03-.12,.24-10.99,.43-19.58,.77-26.55,0-.13,.01-.25,.02-.37,.08-1.5,.16-2.93,.25-4.28h0s.02-.21,.02-.21l.03-.37v-.16s0,0,0,0c1.15-15.87,3.74-22.38,11.38-32.92Z"/><path class="cls-4" d="M205.49,45.09l-.03,.37c5.32-.97,9.3-1.07,9.53-.1,.25,1.04-3.95,2.96-9.8,4.6-.94,.26-1.92,.52-2.93,.76-1.15,.28-2.26,.51-3.33,.72-5.77,1.13-10.2,1.29-10.45,.28-.24-1.01,3.7-2.84,9.27-4.45l-.11-.34c-4.3,1.21-7.82,2.55-9.71,3.67-1.05,.62-1.6,1.18-1.5,1.61,.29,1.2,5.66,.98,12.58-.42,1.07-.22,2.19-.46,3.32-.73,.97-.23,1.92-.48,2.83-.73,7.04-1.92,12.16-4.23,11.86-5.46-.27-1.14-5.14-.99-11.55,.22Z"/></g></svg>